<?xml version="1.0" encoding="UTF-8"?>
<svg id="Layer_1" data-name="Layer 1" xmlns="http://www.w3.org/2000/svg" xmlns:xlink="http://www.w3.org/1999/xlink" viewBox="0 0 541.14 390.22">
  <defs>
    <style>
      .cls-1 {
        fill: #f4a82e;
      }

      .cls-2 {
        fill: #f2c6a0;
      }

      .cls-3 {
        fill: #093d5f;
      }

      .cls-4 {
        fill: #dae7f4;
      }

      .cls-5 {
        fill: #4a4f9b;
      }

      .cls-6 {
        fill: #ed8023;
      }

      .cls-7 {
        fill: #edf5fc;
        filter: url(#drop-shadow-1);
      }

      .cls-8 {
        fill: #1e417e;
      }

      .cls-9 {
        fill: #3162a9;
      }

      .cls-10 {
        fill: #bdd4ef;
      }

      .cls-11 {
        fill: #a7a6a6;
      }

      .cls-12 {
        fill: #ed8322;
      }

      .cls-13 {
        fill: #eaa087;
      }

      .cls-14 {
        fill: #235694;
      }

      .cls-15 {
        fill: #25558e;
      }

      .cls-16 {
        fill: #fff;
      }

      .cls-17 {
        fill: #eab191;
      }

      .cls-18 {
        fill: #759ed3;
      }

      .cls-19 {
        fill: #efb496;
      }

      .cls-20 {
        fill: #efb391;
      }

      .cls-21 {
        opacity: .7;
      }

      .cls-22 {
        fill: #f19c1f;
      }

      .cls-23 {
        fill: #b9755e;
      }

      .cls-24 {
        fill: #1b3154;
      }

      .cls-25 {
        fill: #477fc0;
      }
    </style>
    <filter id="drop-shadow-1" x="0" y="1.97" width="509.45" height="388.25" filterUnits="userSpaceOnUse">
      <feOffset dx="3" dy="3"/>
      <feGaussianBlur result="blur" stdDeviation="0"/>
      <feFlood flood-color="#151310" flood-opacity=".08"/>
      <feComposite in2="blur" operator="in"/>
      <feComposite in="SourceGraphic"/>
    </filter>
  </defs>
  <path class="cls-7" d="M401.58,121.05c-112.67-51.05-110.19-158.06-254-104.41C47.95,53.81-15.24,169.8,3.19,267.22c13.91,73.49,53.93,127.21,124.93,107.63,71-19.58,132.49.34,187.9,12.78,69.74,15.65,175.3-41.71,190.42-117.07,15.12-75.35-27.86-114.63-104.86-149.51Z"/>
  <g>
    <path class="cls-19" d="M520.65,289.93c1.5,4.26,2.53,9.41,2.86,14.99.84,14.34-1.51,19.5-5.66,42.5l-5.13.36c-2.16-11.01-4.18-30.57-5.08-46.02-.22-3.72-.37-7.36-.48-10.89l13.49-.94Z"/>
    <path class="cls-19" d="M493.99,289.51c1.98,4,3.64,8.94,4.71,14.41,2.74,14.06,1.26,19.5.56,42.83l-4.72,1.09c-3.51-10.57-9.89-28.5-12.1-41.14-2.21-12.64-1.87-15.42-2.65-20.07l14.2,2.88Z"/>
    <path class="cls-8" d="M500.26,361.78c2.12-2.62,5.17-1.4,7.91-6.21,2.74-4.82,3.41-7.35,3.41-7.35l3.34-.41c.18.41.53.68.92.65.42-.03.75-.39.86-.87l1.38-.03c1.46.93,2.7,4.44,2.95,8.72.16,2.75-.12,5.24-.7,6.98l-1.92.13c.13-1.98.15-4.25.05-6.65l-1.97,1.31-2.37,5.64-14.32.99s-1.66-.27.46-2.89Z"/>
    <path class="cls-8" d="M481.47,363.05c2.12-2.62,5.17-1.4,7.91-6.21,2.74-4.82,3.41-7.35,3.41-7.35l3.34-.41c.18.41.53.68.92.65.42-.03.75-.39.86-.87l1.38-.03c1.46.93,2.7,4.44,2.95,8.72.16,2.75-.12,5.24-.7,6.98l-1.92.13c.13-1.98.15-4.25.05-6.65l-1.97,1.31-2.37,5.64-14.32.99s-1.66-.27.46-2.89Z"/>
    <path class="cls-19" d="M521.65,293.62c1.98-3.57,5.94-10.71,7.12-15.44,2.74-10.95,5.38-15.31.84-35.9l-14.07-.34c-2.99,9.41-6.02,26.32-7.57,39.75-.37,3.24-.66,6.4-.89,9.49l14.56,2.43Z"/>
    <path class="cls-19" d="M490.87,288.96c1.61-3.62,4.81-10.87,5.84-15.61,2.39-11,4.51-15.43,1.63-35.8l-10.69.12c-2.53,9.47-5.31,26.42-6.85,39.85-.37,3.24-.68,6.4-.94,9.48l11.01,1.95Z"/>
    <path class="cls-19" d="M494.24,291.86c1.38-3.65,4.14-10.96,5.08-15.72,2.17-11.02,4-15.5,2.1-35.73l-8.67.4c-2.26,9.51-4.88,26.48-6.42,39.91-.37,3.24-.69,6.4-.97,9.48l8.88,1.66Z"/>
    <g>
      <path class="cls-20" d="M497.8,150.93c1.66,3.56-5.9,12.86-16.88,20.77-3.15,2.27-10.15,6.57-16.01,7.74-14.57,2.92-31.39.05-32.57-2.48-1.07-2.3,11.46-4.08,23.43-8.04,6.57-2.17,12.97-5.83,16.86-8.63,6.46-4.66,11.07-24.82,15.43-25.89,3.05-.75,9.07,15.06,9.75,16.52Z"/>
      <path class="cls-20" d="M439.48,174.84c0,3.62-5.57,6.56-10.5,6.56s-8.79-5.6-8.79-9.22c0-2.72,5.69,2.38,8.86,2.13,1.05-.08-1.3-6.03-.07-6.03,2.47,0,2.17,3.78,3.79,4.97,1.62,1.19,6.71-.22,6.71,1.6Z"/>
    </g>
    <g>
      <path class="cls-24" d="M487.33,102.66c4.47,20.71,3.42,24.47,4.65,24.2,6.65-1.45,15.17-12.35,15.17-25.93,0-13.59-4.38-24.6-9.78-24.6-5.4,0-12.89,13.1-10.03,26.33Z"/>
      <path class="cls-13" d="M514.21,125.31c-2.22,1.16-4.88,4.49-7.43,5.41-5.28,1.91-9.69-4.31-12.13-5.81.96-1.74,4.4-4.16,4.4-6.65,0-3.39-.18-6.38-1.82-8.17v-4.24h9.92c.44,7.91,3.11,14.84,7.06,19.46Z"/>
      <path class="cls-17" d="M489.73,87.83c1.11-7.21,7.25-5.9,11.73-4.75,2.88.73,5.37,1.92,6.45,6.17.65-.7,1.34,1.19,2.07,1.41,1.51.46,2.32,1.4,1.81,4.14-.5,2.75-2.12,6.26-3.63,5.8-.07-.02-.14-.07-.21-.1-.53,2.2-.25,4.12-1.38,5.67-2.21,3.03-6.45,4.71-9.27,4.75-9.2.14-8.68-15.89-7.57-23.09Z"/>
      <path class="cls-8" d="M486.52,82.32c.74-4.93,11.19-9.33,18.36-8.12,4.56.77,6.66.74,10.58,6.12,3.92,5.38,4.03,29.03,3.37,30.85-1.64,4.5-8.83,11.06-11.06,11.17-.32.02-1.1-7.85-.87-14.1.14-4.02,1.33-7.37,1.22-7.52.79-.26,1.59-.94,2.14-1.94.92-1.69.76-3.6-.35-4.28-.91-.56-2.16-.1-3.09,1-.75-3.74-2.3-7.69-8.84-6.5-7.16,1.3-12.19-1.74-11.45-6.68Z"/>
    </g>
    <path class="cls-18" d="M529.32,187.53c-5.54-8.88-10.95-27.04-10.95-33.61,0-8.84,5.46-16,12.2-16,1.45,0,2.83.35,4.12.96-3.68-10.37-21.11-18.48-24.41-20.67-.5-.33.21.53-.27.27l-10.32,10.08-4.54-4.82c-3.77,2.72-11.93,9.77-14.27,21.29-3.08,15.14,6.96,26.12,7.51,36.66.54,10.54.54,30.39.54,30.39h41.28s-1.47-10.45-.9-24.54Z"/>
    <g class="cls-21">
      <path class="cls-9" d="M492.41,123.8c.21-.17.42-.34.62-.5l-.54.58-.08-.08Z"/>
      <path class="cls-9" d="M523,201.19s-1.47-8.12-.9-21.46c-5.54-8.41-5.81-23.41-5.81-29.63,0-8.37,4.99-14.62,11.73-14.62.6,0,2.64,2.04,6.68,3.4-.53-.09-3.58-.96-4.12-.96-6.74,0-12.41,8.33-12.37,12.52,0,6.22,5.4,23.41,10.95,31.82-.57,13.34.9,23.24.9,23.24l-31.11,2.82-10.17-2.82s0-.12,0-.35l34.22-3.96Z"/>
    </g>
    <path class="cls-9" d="M529.41,202.54c-.35-.56-.72-1.1-1.12-1.62-7.51,3.05-19.55,5.18-27.73,5.75-6.68.46-10.37-.63-12.42-2.65-.04.11-.1.21-.14.32-6.51,17.15-8.41,62.77-8.41,62.77,0,0,55.87,5.37,55.36,2.2-4.19-25.86,3.48-52.12-5.55-66.78Z"/>
    <g>
      <path class="cls-20" d="M531.73,137.95c-5.2.48-10.42,1.46-13.52,12.48.54,5.25,1.63,7.64,2.89,14.96,3.05,17.76,9.68,31.48,14.82,30.66,5.13-.82,6.68-15.87,3.77-33.65-2.14-13.1-4.99-20.42-7.95-24.46Z"/>
      <path class="cls-20" d="M532.19,194.29c-1.88,1.82-7.38-2.74-19.54-14.51-12.16-11.76-20.5-22.77-18.62-24.59,1.88-1.82,13.26,6.24,25.42,18.01,12.16,11.76,14.61,19.27,12.73,21.09Z"/>
      <path class="cls-20" d="M500.32,149.18c2.45,5.06,1.96,10.29-1.1,11.68-3.06,1.39-4.52-.27-6.97-5.33-2.45-5.06-3.14-7.07-.08-8.46,3.06-1.39,5.7-2.95,8.15,2.11Z"/>
    </g>
    <path class="cls-14" d="M522.89,269.26s1.77-42.6,7.77-60.94c7,14.41.94,38.2,4.05,62-6.9-.58-11.81-1.05-11.81-1.05Z"/>
    <circle class="cls-16" cx="499.14" cy="132.46" r=".84"/>
    <circle class="cls-16" cx="498.3" cy="139.41" r=".84"/>
  </g>
  <g>
    <path class="cls-2" d="M135.43,97.08s-.34,10.47-1.68,15.16l-10.6,7.4,39.92,5.97-9.52-13.15s-2.87-14.04-1.37-19.23c1.51-5.19-16.75,3.85-16.75,3.85Z"/>
    <g>
      <path class="cls-5" d="M141.7,230.44c.23,0,.44-.16.5-.4l3.53-13.5c.07-.28-.09-.58-.37-.65-.28-.07-.56.09-.64.38l-3.53,13.5c-.07.28.09.58.37.65.04.01.09.02.13.02Z"/>
      <path class="cls-9" d="M168.09,211.24l-55.58-1.66c-.58,10.74-1.93,40.37-2.97,56.81-2.26,45.97-6.49,100.18-6.49,100.18l-6.32,6.87h15.63s19.29-107.04,19.29-107.04h0l10-20.82,2.6,20.82,10.46,107.04h13.17s-3.27-6.26-3.27-6.26c0,0,2.42-47.53,3.52-100.78.36-14.41.42-41.71-.04-55.15Z"/>
      <polygon class="cls-3" points="84.9 373.65 106.73 373.65 108.38 371.47 109.78 373.65 113.59 373.65 113.59 363.63 102.74 361.56 97.34 368.47 84.9 372.35 84.9 373.65"/>
      <path class="cls-9" d="M168.25,217.23l-22.52-.7c-.58,10.33-4.21,35.69-4.21,35.69l2.6,20.03,10.46,102.95h13.17s-3.27-6.02-3.27-6.02c0,0,2.42-45.71,3.52-96.93.36-13.86.7-42.1.24-55.02Z"/>
      <polygon class="cls-3" points="176.29 374.78 160.97 374.78 159.32 372.6 157.92 374.78 154.11 374.78 154.11 364.76 164.96 362.69 170.36 369.61 176.29 373.48 176.29 374.78"/>
    </g>
    <path class="cls-22" d="M164.59,114.67v.03c-4.22-1.55-8.2-2.63-11.9-3.34-3.52,5.39-5.94,1.76-9,3.14-4.79-1.06-8.53-3.98-8.52-4.15-5.29.45-8.89,1.53-10.36,2.03-.29.03-15.83-1.17-40.14,54.33,0,0-.47,5.25,4.86,14.56,3.79,6.62,6.2,8.08,6.2,8.08l11.86-5.84s-1.31-3.9-3.66-7.99c-2.53-4.42-2.52-8.6-2.17-8.94.67-.65,8.13-8.18,13.64-13.75-.11,1.45-.17,2.77-.2,3.91-.27,12.62-.4,24.9-2.27,38.42-2.46,17.76.4,17.57.4,17.57,0,0,3.79,1.12,9.1,2.26,4.8,1.03,10.84,2.08,16.43,2.32,12.82.56,27.02-2.28,27.02-2.28,4.04.24.26-32.01.35-51.32.02-4.48.04-8.57.05-12.31,4.6,5.54,14.79,17.82,15.54,18.69.32.37-1.01,4-2.94,8.71-3.97,9.69-10.49,23.98-10.49,23.98.67,4.14,1.82,3.11,1.82,3.11,10.33-9.45,17.32-14.25,21.68-20.51,6.12-8.81,6.96-13.68,6.96-13.68-19.55-57.95-34.27-57.02-34.27-57.02Z"/>
    <g>
      <path class="cls-6" d="M96.17,182.58c-5.33-9.31-4.86-14.56-4.86-14.56,24.31-55.5,39.85-54.3,40.14-54.33.94-.33,2.77-.88,5.35-1.36-1.04-.66-1.64-1.18-1.64-1.25-5.29.45-8.89,1.53-10.36,2.03-.29.03-15.83-1.17-40.14,54.33,0,0-.47,5.25,4.86,14.56,3.79,6.62,6.2,8.08,6.2,8.08l4.09-2.01c-.98-1.23-2.22-2.99-3.65-5.49Z"/>
      <path class="cls-6" d="M129.08,216.29c-5.31-1.13-9.1-2.26-9.1-2.26,0,0-2.86.19-.4-17.57,1.87-13.52,2.01-33.02,2.27-45.64.02-1.15.09-1.66.2-3.11-2.18,2.21-4.67,3.92-6.92,6.19-.16,7.76-.34,22.68-.98,30.67.06.16.09.25.09.25l-.11.05c-.29,3.6-.67,7.26-1.19,11.01-2.46,17.76.4,17.57.4,17.57,0,0,3.79,1.12,9.1,2.26,4.8,1.03,10.84,2.08,16.43,2.32.1,0,.21,0,.31.01-3.58-.46-7.08-1.11-10.1-1.76Z"/>
    </g>
    <g>
      <path class="cls-2" d="M115.6,201.93s6.03-5.58,8.49-2.46c2.46,3.13,2.9,8.04,1.01,7.71-1.9-.34-5.81-.71-6.36.19-.56.89-3.06,1.19-3.82-.17-.76-1.36.69-5.26.69-5.26Z"/>
      <path class="cls-2" d="M116.93,201.3c-.96,3.65-2.02,5.9-2.02,5.9-11.18-8.78-18.38-16.25-22.98-21.98,3.47-.26,8.53-1.5,14.35-5.61,4,8.75,10.64,21.68,10.64,21.68Z"/>
    </g>
    <g>
      <path class="cls-2" d="M169.52,200.62s-6.03-5.58-8.49-2.46c-2.46,3.13-2.9,8.04-1.01,7.71,1.9-.34,5.81-.71,6.36.19.56.89,3.06,1.19,3.82-.17.76-1.36-.69-5.26-.69-5.26Z"/>
      <path class="cls-2" d="M168.2,199.98c.96,3.65,2.02,5.9,2.02,5.9,11.18-8.78,18.38-16.25,22.98-21.98-3.47-.26-8.53-1.5-14.35-5.61-4,8.75-10.64,21.68-10.64,21.68Z"/>
    </g>
    <path class="cls-23" d="M135.9,99.76s3.16,5.96,9.1,5.83c5.95-.13,7.3-5.41,7.3-5.41l-16.4-.42Z"/>
    <path class="cls-2" d="M156.55,80.25v10.46c0,1.75-.4,3.43-1.08,4.97h0c-1.17,2.67-3.17,4.93-5.36,6.46-1.94,1.36-4.02,2.14-5.8,2.11-1.55-.03-3.56-.79-5.51-2.08-2.62-1.74-5.12-4.44-6.19-7.62l-.02-.05-.04-.13c-.31-.98-.48-1.99-.48-3.03v-11.09c0-2.59,1.81-4.72,4.02-4.72h16.44c2.21,0,4.02,2.12,4.02,4.72Z"/>
    <g>
      <ellipse class="cls-8" cx="143.68" cy="69.5" rx="9.7" ry="6.11"/>
      <path class="cls-8" d="M150.73,70.52c-1.47,1.52-1.39,4.42.2,6.47,1.58,2.05,4.06,2.48,5.54.95s1.39-4.42-.2-6.47c-1.58-2.05-4.06-2.48-5.54-.95Z"/>
      <path class="cls-8" d="M142.82,78.45c-.74-.8-1.55-1.52-2.5-2.05,2.45,1.29,5.37,1.52,8.24,1.75v.12c0,.27,0,.54,0,.8,2.39-1.34,5.14-2.29,8.11-2.74-.11-.43-.24-.87-.42-1.32-.6-2.39-4-3.56-6.33-4.94-4.76-2.91-8.93-5.97-14.19-3.93-.03,0-.07,0-.11-.02-1.07,1.04-2.24,2.25-3.04,3.54-.2.3-.36.58-.5.86-.71,1.39-.81,2.63-.48,3.69-1.02,2.18-.57,5.67-.41,8.01.08,1.2.31,2.34.56,3.47.19.84.38,1.67.52,2.53.05,0,.11-.02.15-.02-.25-3.24-.24-6.58-.1-9.8.03-.91.08-1.8.14-2.68v-.02s.03-.02.03-.02c.4.36.85.73,1.32,1.09,3.31,2.49,9.27,1.93,9.02,1.66Z"/>
      <path class="cls-8" d="M157.09,72.51c-.64.75-1.22,1.77-1.7,2.99.02-.02.04-.04.07-.06v.02s.03.02.03.02c.06.88.11,1.77.14,2.68.14,3.22.15,6.55-.1,9.8.04,0,.1,0,.15.02.13-.86,1.05-1.69,1.23-2.53.25-1.13.73-2.28.8-3.47.15-2.34.6-5.83-.41-8.01.14-.45.03-.93-.2-1.45Z"/>
    </g>
    <polygon class="cls-16" points="105.72 178.76 91.87 185.17 94.37 188.13 107.7 182.16 105.72 178.76"/>
    <polygon class="cls-16" points="180 176.57 193.85 182.98 191.35 185.94 178.02 179.97 180 176.57"/>
  </g>
  <path class="cls-4" d="M292.03,152.62c-.08.95-.11,1.91.64,2.86.74.94,2.07,1.55,3.45,2.33,5.74,3.25,6.06.5,6.81-1.28.48-1.13-.09-2.49-.09-2.49-.72-.63-2.92-2.3-4.01-2.69-3.01-1.08-6.37-3.79-6.8,1.28M334.06,108.51c.07-1.33,1.54-3.82-1.82-4.68-1.19-.31-5.1.49-6.64.37-1.91-.15-5.88-1.87-7.23-1.23-1.35.64-4.04,1.69-3.55,3.85.67,2.93,2.02,3.08,3.18,3.9,1.15.82,3.96.85,5.87.99,1.91.15,4.72.6,5.96.27,1.89-.52,4.17-2.2,4.23-3.47M212.22,100.79c2.79,13.68,22.87,29.59,31.44,35.97,6.74,5.01,20.93,9.12,21.3,1.88.37-7.24-16.72-11.46-27.14-19.56-12.5-9.7-18-18.05-18.73-34.84-.35-8.16,16.07-28.93,24.65-31.19-1.94,24.02,6.13,38.64,12.65,48.12,4.31,6.27,10.99,11.61,16.49,5.34,5.5-6.27-2.97-12.48-7.6-20.13-7.89-13-6.88-25.73-5.6-33.67,1.47-9.16,14.99-17.65,29.19-17.41-7.97,15.56,1.01,36.62,5.79,41.79,4.77,5.18,9.17.87,9.57-5.76.31-5.02,1.78-32.29,3.51-35.55,6.44-12.17,26.98-13.32,36.73-18.86,3.86,12.74,13.93,25.82,8.85,35.2-1.77,3.25-19.98,24.53-23.4,28.43-4.54,5.15-4.46,11.08,2.85,10.22,7.31-.85,29.34-10.8,34.82-27.24,10.66,8.67,18.81,24.28,13.2,31.96-4.88,6.66-18.13,13.75-33.45,18.42-9.01,2.77-21.95,5.7-22.47,13.76-.52,8.05,10,5.78,18.53,4.69,7.89-1.01,28.38-8.7,44.52-27.63,4.68,7.01,1.89,29.56-3.69,35.98-8.14,9.35-20.93,16.16-40.87,15.24-13.6-.63-28.65-6.84-33.67-1.27-5.03,5.58,9.78,9.29,19.3,11.31,8.38,1.78,44.75-2.68,49.78-8.26,3.02,12.53-5.25,27.01-13.66,33.89-12.93,10.59-29.01,6.57-39.49,2.29-11.34-4.62-28.35-15.39-28.31-6.37.11,21.76,40.87,20.06,47.51,21.04-6.93,23.68-38.65,30.34-57.19,11.43-11.26-11.49-8.8-27.39-15.74-32.17,1.01-2.16,45.39-108.27,47.76-113.61,2.79-6.29,8.82-22.84,8.57-24.81-1.62,1.29-9.28,17.26-11.81,23.64-2.17,5.42-48.92,111.45-49.77,113.66-8.61-.8-11.93,12.51-28.64,12.89-17.82.4-44.89-8.76-36.52-45.87,5.62,3.42,20.49,12.56,29.17,16.85,6.9,3.41,17.9,5.77,19.43.02,2.34-8.86-19.62-11.56-31.36-15.21-10.86-3.38-18.68-7-22.26-18.24-1.99-6.26,4.15-30.35,15.75-36.37M261.06,167.11c-3.28.16-3.83,2.21-3.84,4.09,0,1.09-.18,2.63,1.2,3.19,1.01.41,4.91.23,6.29.16,1.39-.07,2.67-.41,3.68-.93,1.36-.7,2.92-.82,2.93-1.91,0-.9-.81-2.22-2.24-3.14-1.1-.71-6.29-1.55-8.01-1.46M290.77,116.61c-2.55-1.84-9.25-5.09-11.16-4.7-5.99,1.24-5.86,5.97-5.41,7.08.45,1.11,5.87,1.73,7.27,2.47,1.11.59,2.23,2.63,2.71,2.86,2.18,1.04,5.54-.69,6.52-1.96,1.2-1.55,2.65-3.92.08-5.76"/>
  <g>
    <path class="cls-12" d="M382.34,277.15c0-1.36-.37-2.66-1.03-3.82-1.44-3.14-4.84-12.89,3.77-12.89h39.37v-39.56c0-8.61-9.76-5.2-12.89-3.77-1.17.66-2.46,1.03-3.82,1.03-5.16,0-9.34-5.26-9.34-11.76s4.18-11.76,9.34-11.76c1.19,0,2.33.28,3.37.79.08,0,.17.01.27.06,2.92,1.38,13.07,5.1,13.07-3.68v-39.56h-39.37c-8.78,0-5.06-10.15-3.68-13.07.05-.1.06-.19.06-.27.51-1.05.79-2.18.79-3.37,0-5.16-5.26-9.34-11.76-9.34s-11.76,4.18-11.76,9.34c0,1.36.37,2.66,1.03,3.82,1.44,3.14,4.84,12.89-3.77,12.89h-39.75v39.56c0,8.61,9.76,5.2,12.89,3.77,1.17-.66,2.46-1.03,3.82-1.03,5.16,0,9.34,5.26,9.34,11.76s-4.18,11.76-9.34,11.76c-1.19,0-2.33-.28-3.37-.79-.08,0-.17-.01-.27-.06-2.92-1.38-13.07-5.1-13.07,3.68v39.56h39.75c8.78,0,5.06,10.15,3.68,13.07-.05.1-.06.19-.06.27-.51,1.05-.79,2.18-.79,3.37,0,5.16,5.26,9.34,11.76,9.34s11.76-4.18,11.76-9.34Z"/>
    <path class="cls-1" d="M424.06,368.63v-108.2h-39.56c-8.61,0-5.2,9.76-3.77,12.89.66,1.17,1.03,2.46,1.03,3.82,0,5.16-5.26,9.34-11.76,9.34s-11.76-4.18-11.76-9.34c0-1.19.28-2.33.79-3.37,0-.08.01-.17.06-.27,1.38-2.92,5.1-13.07-3.68-13.07h-39.56v39.37c0,8.78-10.15,5.06-13.07,3.68-.1-.05-.19-.06-.27-.06-1.05-.51-2.18-.79-3.37-.79-5.16,0-9.34,5.26-9.34,11.76s4.18,11.76,9.34,11.76c1.36,0,2.66-.37,3.82-1.03,3.14-1.44,12.89-4.84,12.89,3.77v39.75h108.2Z"/>
    <path class="cls-18" d="M298.86,302.82c1.19,0,2.33.28,3.37.79.08,0,.17.01.27.06,2.92,1.38,13.07,5.1,13.07-3.68v-39.56h-39.75c-8.78,0-5.06-10.15-3.68-13.07.05-.1.06-.19.06-.27.51-1.05.79-2.18.79-3.37,0-5.16-5.26-9.34-11.76-9.34s-11.76,4.18-11.76,9.34c0,1.36.37,2.66,1.03,3.82,1.44,3.14,4.84,12.89-3.77,12.89h-39.37v39.56c0,8.61,9.76,5.2,12.89,3.77,1.17-.66,2.46-1.03,3.82-1.03,5.16,0,9.34,5.26,9.34,11.76s-4.18,11.76-9.34,11.76c-1.19,0-2.33-.28-3.37-.79-.08,0-.17-.01-.27-.06-2.92-1.38-13.07-5.1-13.07,3.68v39.56h108.2v-39.56c0-8.61-9.76-5.2-12.89-3.77-1.17.66-2.46,1.03-3.82,1.03-5.16,0-9.34-5.26-9.34-11.76s4.18-11.76,9.34-11.76Z"/>
    <path class="cls-9" d="M224.71,215.23c.23,1.11.18,2.22-.09,3.29.02.08.02.16,0,.26-.73,2.98-2.24,13.14,5.93,11.46l36.81-7.57-7.61-36.99c-1.68-8.17,8.48-6.66,11.46-5.93.1.02.19.02.26,0,1.07.27,2.18.32,3.29.09,4.8-.99,7.69-6.69,6.45-12.73s-6.14-10.14-10.94-9.15c-1.27.26-2.4.85-3.36,1.69-2.64,1.94-11.07,6.98-12.72-1.04l-7.54-36.64-36.81,7.57c-8.01,1.65-2.98,10.08-1.04,12.72.84.96,1.43,2.09,1.69,3.36.99,4.8-3.11,9.7-9.15,10.94s-11.74-1.64-12.73-6.45c-.23-1.11-.18-2.22.09-3.29-.02-.08-.02-.16,0-.26.73-2.98,2.24-13.14-5.93-11.46l-36.81,7.57,7.54,36.64c1.68,8.17-8.48,6.66-11.46,5.93-.1-.02-.19-.02-.26,0-1.07-.27-2.18-.32-3.29-.09-4.8.99-7.69,6.69-6.45,12.73s6.14,10.14,10.94,9.15c1.27-.26,2.4-.85,3.36-1.69,2.64-1.94,11.07-6.98,12.72,1.04l7.61,36.99,36.81-7.57c8.01-1.65,2.98-10.08,1.04-12.72-.84-.96-1.43-2.09-1.69-3.36-.99-4.8,3.11-9.7,9.15-10.94,6.04-1.24,11.74,1.64,12.73,6.45Z"/>
  </g>
  <path class="cls-15" d="M110.35,363.63s4.23-51.82,6.49-95.76c1.02-15.44,10.93-40.32,11.53-51.02l-16.22-2.93c-.58,10.27-1.93,38.59-2.97,54.3-2.26,43.94-6.49,95.76-6.49,95.76l7.66-.35Z"/>
  <g>
    <g>
      <path class="cls-18" d="M444.92,329.45h-41.98l1.1,18.36c.49,8.24,3.33,16.21,8.34,22.78.62.81,1.23,1.54,1.81,2.15h0c0,.77,4.36,1.39,9.74,1.39s9.74-.62,9.74-1.39h.03c.6-.62,1.22-1.38,1.86-2.21,5.01-6.6,7.85-14.59,8.33-22.87l1.04-18.21Z"/>
      <ellipse class="cls-10" cx="423.93" cy="329.45" rx="20.99" ry="3"/>
      <ellipse class="cls-9" cx="423.85" cy="329.45" rx="16.45" ry="1.75"/>
    </g>
    <path class="cls-11" d="M413.79,368.88c.26-.52.9-.73,1.42-.46.52.26.73.9.46,1.42-.26.52-.9.73-1.42.46-.52-.26-.73-.9-.46-1.42Z"/>
    <path class="cls-11" d="M420.15,367.5c.26-.52.9-.73,1.42-.46.52.26.73.9.46,1.42-.26.52-.9.73-1.42.46-.52-.26-.73-.9-.46-1.42Z"/>
    <g>
      <path class="cls-9" d="M425.8,330.49c0-.26.32-26.26-9.09-54.42l-.98.63c9.3,27.83,9,53.5,8.99,53.75l1.08.03Z"/>
      <polygon class="cls-9" points="425.12 318.35 432.51 279.47 431.47 279.09 424.07 317.97 425.12 318.35"/>
      <path class="cls-9" d="M421.2,330.56l1.07-.17c-.1-1.29-2.62-31.81-8.96-46.26l-.92.78c6.21,14.16,8.78,45.33,8.81,45.64Z"/>
      <path class="cls-9" d="M428.13,330.56c.02-.23,2.01-23.66,7.34-49.85l-1.04-.41c-5.35,26.31-7.35,49.85-7.37,50.08l1.07.17Z"/>
    </g>
    <g>
      <path class="cls-9" d="M440.7,259.25c-2.03,5.22-3.13,18.09-5.95,15.65-2.82-2.44-1.5-12.66-1.5-12.66,0,0-3.09-.37-7.43,5.04,0,0-1.09.88,3.44,11.54,4.53,10.66-.09,11.05-.09,11.05,0,0-6.42-3.72-7.41-13.74,0,0-3.04,12.25,1.68,19.9,4.72,7.65,10.4,4.33,10.4,4.33,0,0,2.48-27.51,9.59-36.31,7.11-8.8,11.47-10.59,11.47-10.59,0,0-12.17.55-14.2,5.77Z"/>
      <path class="cls-25" d="M433.84,300.39s1.62,8.86,12.97,9.01c2.84.04,5.07-1,6.82-2.57,0,0-2.12-5.55-8.13-4.42-6.01,1.14-5.88-2.5-5.88-2.5,0,0,18.79,2.05,19.42-12.84,0,0-18.38,2.81-18.63-.17-.25-2.98,19.31-9.04,19.31-9.04,0,0,.6-6.68-1.55-11.55,0,0-6.04,2.56-9.96,6.05-3.92,3.49-5.28,1.23-5.28,1.23,0,0,2.33-8.56,12.62-12.42l-.65-7.68s-4.36,1.79-11.47,10.59c-7.11,8.8-9.59,36.31-9.59,36.31Z"/>
    </g>
    <g>
      <path class="cls-25" d="M399.57,243.69c2.92,4.9,5.9,17.51,8.59,14.7,2.7-2.81-.15-12.75-.15-12.75,0,0,3.27-.79,8.7,3.98,0,0,1.3.72-2.09,11.91-3.39,11.19,1.64,10.94,1.64,10.94,0,0,6.39-4.56,6.06-14.63,0,0,4.98,11.72.98,19.95-4.01,8.23-10.59,5.71-10.59,5.71,0,0-6.51-26.92-15.4-34.68-8.88-7.75-13.82-8.93-13.82-8.93,0,0,13.17-1.12,16.09,3.78Z"/>
      <path class="cls-9" d="M412.7,283.52s-.5,9-12.7,10.7c-3.05.42-5.59-.3-7.7-1.62,0,0,1.51-5.79,8.14-5.49,6.63.31,5.98-3.28,5.98-3.28,0,0-19.93,4.6-22.69-10.07,0,0,20.17.27,20.02-2.71-.15-2.98-22.04-6.32-22.04-6.32,0,0-1.58-6.54.06-11.66,0,0,6.85,1.71,11.56,4.63,4.71,2.92,5.85.5,5.85.5,0,0-3.71-8.16-15.32-10.59l-.38-7.7s4.94,1.18,13.82,8.93c8.88,7.75,15.4,34.68,15.4,34.68Z"/>
    </g>
    <path class="cls-9" d="M427.6,328.89s9.9-25.8,32.36-25.36c22.46.44-30,22.29-32.36,25.36Z"/>
    <g>
      <path class="cls-25" d="M386.72,282h0s-3.42,4.49,6.04,7.61c0,0,0,0,0,0,.51-3.06,2.02-5.07,2.02-5.07-3.18-.52-5.83-1.43-8.06-2.54Z"/>
      <path class="cls-25" d="M390.88,278.02c-14.2-5.43-14.79-7.74-14.79-7.74,0,0,2.01,7.41,10.63,11.73,2.22,1.11,4.88,2.02,8.06,2.54,0,0-1.51,2.01-2.02,5.07-.52,3.14.02,7.39,4.35,11.72,8.54,8.54,20.22,6.58,20.22,6.58,0,0-8-22.84-26.45-29.9Z"/>
    </g>
  </g>
  <g>
    <g>
      <path class="cls-22" d="M70.3,56.08v11.44h2.59v-11.44c0-.82-.58-1.49-1.3-1.49s-1.3.67-1.3,1.49Z"/>
      <path class="cls-22" d="M70.3,106.1c0,.82.58,1.49,1.3,1.49s1.3-.67,1.3-1.49v-10.76h-2.59v10.76Z"/>
      <path class="cls-22" d="M43.84,81.09c0,.68.7,1.24,1.56,1.24h11.98v-2.47h-11.98c-.86,0-1.56.55-1.56,1.24Z"/>
      <path class="cls-22" d="M97.78,79.85h-11.26v2.47h11.26c.86,0,1.56-.55,1.56-1.24s-.7-1.24-1.56-1.24Z"/>
    </g>
    <g>
      <path class="cls-22" d="M52.16,64.28l8.47,8.09,1.83-1.75-8.47-8.09c-.61-.58-1.52-.66-2.02-.18s-.42,1.35.19,1.93Z"/>
      <path class="cls-22" d="M89.19,99.64c.61.58,1.52.66,2.02.18s.42-1.35-.19-1.93l-7.96-7.61-1.83,1.75,7.96,7.61Z"/>
      <path class="cls-22" d="M51.97,99.83c.51.48,1.41.4,2.02-.18l8.47-8.09-1.83-1.75-8.47,8.09c-.61.58-.7,1.45-.19,1.93Z"/>
      <path class="cls-22" d="M89.19,62.53l-7.96,7.6,1.83,1.75,7.96-7.6c.61-.58.7-1.45.19-1.93-.51-.48-1.41-.4-2.02.18Z"/>
    </g>
  </g>
  <path class="cls-18" d="M385.21,41.1h-5.24v-3.14h5.24v-5.55h3.21v5.55h5.24v3.14h-5.24v5.55h-3.21v-5.55Z"/>
  <path class="cls-18" d="M75.92,253.23h-5.24v-3.14h5.24v-5.55h3.21v5.55h5.24v3.14h-5.24v5.55h-3.21v-5.55Z"/>
  <path class="cls-18" d="M195.87.02l75.14,4.52c5.58.34,9.87,5.18,9.54,10.76l-2.58,42.84c-.34,5.58-5.18,9.87-10.76,9.54l-53.73-3.24-18.77,20.88,1.32-21.93-3.96-.24c-5.58-.34-9.87-5.18-9.54-10.76l2.58-42.84c.34-5.58,5.18-9.87,10.76-9.54Z"/>
  <g>
    <rect class="cls-16" x="205.23" y="32.14" width="51.4" height="3.79" transform="translate(459.39 81.9) rotate(-176.55)"/>
    <rect class="cls-16" x="204.6" y="42.54" width="51.4" height="3.79" transform="translate(457.51 102.64) rotate(-176.55)"/>
    <rect class="cls-16" x="205.87" y="21.52" width="51.4" height="3.79" transform="translate(461.3 60.71) rotate(-176.55)"/>
  </g>
</svg>