<?xml version="1.0" encoding="UTF-8"?>
<svg id="Layer_1" data-name="Layer 1" xmlns="http://www.w3.org/2000/svg" xmlns:xlink="http://www.w3.org/1999/xlink" viewBox="0 0 614.58 460.52">
  <defs>
    <style>
      .cls-1 {
        fill: #17538f;
      }

      .cls-2 {
        fill: #f4f5f7;
      }

      .cls-3 {
        fill: #dae7f4;
      }

      .cls-4 {
        fill: #c8d0dd;
      }

      .cls-4, .cls-5 {
        opacity: .3;
      }

      .cls-6 {
        fill: #bec7cd;
      }

      .cls-7 {
        fill: #e8bea9;
      }

      .cls-8 {
        fill: #324673;
      }

      .cls-9 {
        fill: #1a3a68;
      }

      .cls-10 {
        fill: #ba755e;
      }

      .cls-11 {
        fill: #eeb11e;
      }

      .cls-12 {
        filter: url(#drop-shadow-1);
      }

      .cls-12, .cls-13 {
        fill: #edf5fc;
      }

      .cls-14 {
        fill: #1e417e;
      }

      .cls-15 {
        fill: #3162a9;
      }

      .cls-16 {
        fill: #bdd4ef;
      }

      .cls-17 {
        fill: #bfd8e8;
      }

      .cls-18 {
        fill: #a7a6a6;
      }

      .cls-19 {
        fill: #ed8322;
      }

      .cls-20 {
        fill: #eaa087;
      }

      .cls-21 {
        fill: #d7e7f5;
      }

      .cls-22 {
        isolation: isolate;
      }

      .cls-23 {
        fill: #235694;
      }

      .cls-24 {
        fill: #fdfeff;
      }

      .cls-25 {
        fill: #13375b;
      }

      .cls-26 {
        fill: #5284c1;
      }

      .cls-27 {
        fill: #fff;
      }

      .cls-28 {
        fill: #124b98;
      }

      .cls-29 {
        fill: #eab191;
      }

      .cls-30 {
        fill: #759ed3;
      }

      .cls-31 {
        fill: #efb496;
      }

      .cls-32 {
        fill: #efb391;
      }

      .cls-33 {
        opacity: .2;
      }

      .cls-34 {
        fill: #f19c1f;
      }

      .cls-35 {
        fill: #6e829f;
      }

      .cls-36 {
        fill: #92a1b1;
      }

      .cls-37 {
        fill: #19142f;
      }

      .cls-38 {
        fill: #e98724;
      }

      .cls-39 {
        fill: #1b3154;
      }

      .cls-40 {
        fill: #e5dacf;
      }

      .cls-41 {
        fill: #f3c7a1;
      }

      .cls-42 {
        fill: #477fc0;
      }
    </style>
    <filter id="drop-shadow-1" x="307.06" y="0" width="92.73" height="85.18" filterUnits="userSpaceOnUse">
      <feOffset dx="3" dy="3"/>
      <feGaussianBlur result="blur" stdDeviation="0"/>
      <feFlood flood-color="#010101" flood-opacity=".08"/>
      <feComposite in2="blur" operator="in"/>
      <feComposite in="SourceGraphic"/>
    </filter>
  </defs>
  <path class="cls-13" d="M557.51,209.13c25.93,62.63-3.7,245.89-174.8,234.2-49.09-3.35-103.75-48.96-144.64-38.87-40.88,10.09-60.43,48.93-137.06,36.81-76.62-12.11-93.87-77.41-77.04-126.19C40.8,266.3-3.58,251.18.23,209.66c3.49-37.98,60.97-46.8,87.69-76.75,26.72-29.95,37.89-88.2,97.55-89.21,66.47-1.12,63.25,76.56,152.45,64.5,98.58-13.33,186.88,21.93,219.58,100.92"/>
  <path class="cls-12" d="M350.47,82.24c21.94-7.18,39.11,9.18,47.72-17.78,5.96-18.68-5.34-44.37-23.47-56.55-13.68-9.18-27.28-11.96-32.66.31-5.38,12.28-16.06,17.38-24.78,22.81-10.98,6.83-14.36,29.32-3.88,42.6,10.48,13.28,22.08,13.51,37.07,8.6Z"/>
  <path class="cls-3" d="M509.29,300.56c-.34.74-.65,1.5-.29,2.5.35.99,1.3,1.92,2.24,2.99,3.91,4.48,4.97,2.37,6.12,1.18.74-.75.65-2.03.65-2.03-.42-.74-1.8-2.8-2.6-3.46-2.23-1.85-4.28-5.12-6.11-1.19M557.51,278.78c.44-1.05,2.4-2.57-.18-4.35-.91-.63-4.45-1.26-5.71-1.86-1.57-.74-4.42-3.41-5.75-3.34-1.33.07-3.9.04-4.11,1.94-.28,2.58.82,3.13,1.55,4.17.73,1.04,3.1,1.97,4.67,2.71,1.57.74,3.81,2.02,4.95,2.15,1.75.2,4.16-.41,4.57-1.41M456.91,232.96c-1.6,11.9,10.75,31.22,16.14,39.14,4.24,6.22,15.03,14.13,17.43,8.43,2.41-5.7-10.8-14.65-17.25-24.54-7.74-11.86-9.97-20.36-5.74-34.09,2.06-6.68,21.93-18.03,29.82-17.06-8.58,18.67-6,33.05-3.23,42.79,1.83,6.44,5.92,12.9,12.37,9.65,6.45-3.25,1.1-11-.6-18.65-2.9-13.01,1.63-22.91,5-28.88,3.89-6.89,17.75-9.31,29.67-4.5-11.22,9.91-9.74,29.76-7.19,35.47,2.53,5.71,7.48,3.68,9.75-1.52,1.71-3.93,10.84-25.37,13.24-27.43,8.96-7.69,26.62-1.93,36.46-3.22-.42,11.49,4.3,25.28-2.7,31.17-2.43,2.04-23.95,13.22-27.97,15.24-5.32,2.66-6.96,7.45-.55,9.14,6.41,1.69,27.88.86,37.27-10.57,6.49,10.43,8.86,25.63,1.9,29.98-6.04,3.77-19.27,5.15-33.55,3.93-8.41-.71-20.17-2.55-22.94,3.75-2.77,6.3,6.77,7.9,14.29,9.8,6.95,1.75,26.47,2.24,45.56-7.73,1.93,7.16-6.95,24.38-13.51,27.72-9.57,4.87-22.34,6.19-38.9-1.04-11.3-4.93-22.2-14.81-28.05-11.97-5.86,2.85,5.57,10.65,13.02,15.37,6.56,4.16,38.55,12.4,44.4,9.54-1.08,11.05-12.24,20.01-21.33,22.8-13.97,4.31-26.39-4.15-34-11-8.24-7.4-19.48-21.59-22.05-14.33-6.2,17.52,28.69,29.41,34.02,32.36-12.7,16.78-41.4,11.82-51.57-9.41-6.18-12.9.49-24.88-3.98-30.98,1.48-1.41,69.61-72.26,73.16-75.79,4.17-4.15,14.05-15.49,14.4-17.16-1.74.51-12.82,10.86-16.8,15.17-3.39,3.65-73.51,73.67-74.87,75.18-7.03-3.44-13.69,6.17-27.9,1.05-15.15-5.47-35.36-21.64-17.57-48.74,3.75,4.58,13.66,16.75,19.75,23.02,4.83,4.98,13.44,10.46,16.4,6.33,4.54-6.36-13.22-15.67-22.07-22.42-8.19-6.25-13.74-11.7-13.51-21.9.13-5.68,12.28-23.05,23.81-24.11M478.96,302.14c-2.81-.93-3.87.53-4.42,2.04-.32.87-.91,2.05.09,2.95.73.66,4.08,1.78,5.26,2.17,1.19.4,2.37.54,3.37.45,1.35-.12,2.7.29,3.02-.58.26-.72-.05-2.05-.98-3.26-.73-.93-4.86-3.29-6.34-3.78M518.63,271.21c-1.62-2.31-6.34-7.1-8.06-7.41-5.42-.95-6.67,2.89-6.62,3.93.06,1.04,4.45,3.3,5.42,4.35.77.84,1.12,2.84,1.46,3.18,1.54,1.54,4.87,1.25,6.07.55,1.46-.86,3.37-2.29,1.73-4.6"/>
  <g>
    <g>
      <path class="cls-30" d="M127.75,374.51h-41.98l1.1,18.36c.49,8.24,3.33,16.21,8.34,22.78.62.81,1.23,1.54,1.81,2.15h0c0,.77,4.36,1.39,9.74,1.39s9.74-.62,9.74-1.39h.03c.6-.62,1.22-1.38,1.86-2.21,5.01-6.6,7.85-14.59,8.33-22.87l1.04-18.21Z"/>
      <ellipse class="cls-16" cx="106.76" cy="374.51" rx="20.99" ry="3"/>
      <ellipse class="cls-15" cx="106.69" cy="374.51" rx="16.45" ry="1.75"/>
    </g>
    <path class="cls-18" d="M96.63,413.95c.26-.52.9-.73,1.42-.46.52.26.73.9.46,1.42-.26.52-.9.73-1.42.46-.52-.26-.73-.9-.46-1.42Z"/>
    <path class="cls-18" d="M102.99,412.56c.26-.52.9-.73,1.42-.46.52.26.73.9.46,1.42-.26.52-.9.73-1.42.46-.52-.26-.73-.9-.46-1.42Z"/>
    <g>
      <path class="cls-15" d="M108.64,375.55c0-.26.32-26.26-9.09-54.42l-.98.63c9.3,27.83,9,53.5,8.99,53.75l1.08.03Z"/>
      <polygon class="cls-15" points="107.95 363.41 115.35 324.53 114.31 324.15 106.91 363.03 107.95 363.41"/>
      <path class="cls-15" d="M104.03,375.62l1.07-.17c-.1-1.29-2.62-31.81-8.96-46.26l-.92.78c6.21,14.16,8.78,45.33,8.81,45.64Z"/>
      <path class="cls-15" d="M110.97,375.62c.02-.23,2.01-23.66,7.34-49.85l-1.04-.41c-5.35,26.31-7.35,49.85-7.37,50.08l1.07.17Z"/>
    </g>
    <g>
      <path class="cls-15" d="M123.54,304.32c-2.03,5.22-3.13,18.09-5.95,15.65-2.82-2.44-1.5-12.66-1.5-12.66,0,0-3.09-.37-7.43,5.04,0,0-1.09.88,3.44,11.54,4.53,10.66-.09,11.05-.09,11.05,0,0-6.42-3.72-7.41-13.74,0,0-3.04,12.25,1.68,19.9,4.72,7.65,10.4,4.33,10.4,4.33,0,0,2.48-27.51,9.59-36.31,7.11-8.8,11.47-10.59,11.47-10.59,0,0-12.17.55-14.2,5.77Z"/>
      <path class="cls-42" d="M116.68,345.45s1.62,8.86,12.97,9.01c2.84.04,5.07-1,6.82-2.57,0,0-2.12-5.55-8.13-4.42-6.01,1.14-5.88-2.5-5.88-2.5,0,0,18.79,2.05,19.42-12.84,0,0-18.38,2.81-18.63-.17-.25-2.98,19.31-9.04,19.31-9.04,0,0,.6-6.68-1.55-11.55,0,0-6.04,2.56-9.96,6.05-3.92,3.49-5.28,1.23-5.28,1.23,0,0,2.33-8.56,12.62-12.42l-.65-7.68s-4.36,1.79-11.47,10.59c-7.11,8.8-9.59,36.31-9.59,36.31Z"/>
    </g>
    <g>
      <path class="cls-42" d="M82.41,288.76c2.92,4.9,5.9,17.51,8.59,14.7,2.7-2.81-.15-12.75-.15-12.75,0,0,3.27-.79,8.7,3.98,0,0,1.3.72-2.09,11.91-3.39,11.19,1.64,10.94,1.64,10.94,0,0,6.39-4.56,6.06-14.63,0,0,4.98,11.72.98,19.95-4.01,8.23-10.59,5.71-10.59,5.71,0,0-6.51-26.92-15.4-34.68-8.88-7.75-13.82-8.93-13.82-8.93,0,0,13.17-1.12,16.09,3.78Z"/>
      <path class="cls-15" d="M95.54,328.58s-.5,9-12.7,10.7c-3.05.42-5.59-.3-7.7-1.62,0,0,1.51-5.79,8.14-5.49,6.63.31,5.98-3.28,5.98-3.28,0,0-19.93,4.6-22.69-10.07,0,0,20.17.27,20.02-2.71-.15-2.98-22.04-6.32-22.04-6.32,0,0-1.58-6.54.06-11.66,0,0,6.85,1.71,11.56,4.63,4.71,2.92,5.85.5,5.85.5,0,0-3.71-8.16-15.32-10.59l-.38-7.7s4.94,1.18,13.82,8.93c8.88,7.75,15.4,34.68,15.4,34.68Z"/>
    </g>
    <path class="cls-15" d="M110.44,373.95s9.9-25.8,32.36-25.36c22.46.44-30,22.29-32.36,25.36Z"/>
    <g>
      <path class="cls-42" d="M69.56,327.06h0s-3.42,4.49,6.04,7.61c0,0,0,0,0,0,.51-3.06,2.02-5.07,2.02-5.07-3.18-.52-5.83-1.43-8.06-2.54Z"/>
      <path class="cls-42" d="M73.72,323.08c-14.2-5.43-14.79-7.74-14.79-7.74,0,0,2.01,7.41,10.63,11.73,2.22,1.11,4.88,2.02,8.06,2.54,0,0-1.51,2.01-2.02,5.07-.52,3.14.02,7.39,4.35,11.72,8.54,8.54,20.22,6.58,20.22,6.58,0,0-8-22.84-26.45-29.9Z"/>
    </g>
  </g>
  <g>
    <path class="cls-3" d="M514.51,171.46l10.4,1,.99-5.6-10.14-2.69c.19-1.56.32-3.14.41-4.72l10.5-.69.07-5.68-10.51-1.03c-.05-1.32-.14-2.64-.27-3.97l10.34-2.29-.79-5.63-10.58.57c-.23-1.19-.48-2.38-.76-3.55l9.84-3.77-1.61-5.45-10.31,2.11c-.42-1.21-.86-2.4-1.34-3.58l9.13-5.17-2.4-5.15-9.82,3.6c-.7-1.35-1.45-2.67-2.23-3.97l8.14-6.51-3.19-4.7-9.06,5.07c-.95-1.28-1.94-2.53-2.97-3.75l6.92-7.67-3.91-4.13-8.03,6.4c-.97-.94-1.96-1.86-2.97-2.75l5.64-8.56-4.49-3.49-6.91,7.47c-1.64-1.18-3.32-2.29-5.04-3.34l3.96-9.23-5.03-2.64-5.35,8.37c-1.2-.58-2.42-1.13-3.66-1.65l2.49-9.55-5.37-1.86-3.97,8.91c-1.52-.47-3.06-.91-4.62-1.28l.93-9.61-5.6-.99-2.45,9.22c-1.66-.24-3.34-.42-5.04-.55l-.62-9.42-5.68-.07-.91,9.29c-1.43.03-2.87.09-4.31.2l-2.01-9.07-5.63.79.5,9.15c-1.32.22-2.63.48-3.92.77l-3.38-8.43-5.21,1.54,1.42,8.86c-1.29.42-2.56.88-3.82,1.37l-4.49-7.64-4.92,2.3,2.66,8.35c-1.45.73-2.88,1.51-4.27,2.33l-5.5-6.67-4.49,3.05,3.86,7.64c-1.39,1.01-2.74,2.07-4.06,3.17l-6.36-5.56-3.94,3.73,4.94,6.77c-1.03,1.04-2.02,2.1-2.99,3.2l-7-4.45-3.33,4.29,5.8,5.84c-1.28,1.76-2.47,3.58-3.6,5.45l-7.52-3.08-2.52,4.81,6.61,4.64c-.63,1.32-1.23,2.65-1.78,4l-7.77-1.9-1.78,5.13,7.13,3.55c-.5,1.64-.94,3.3-1.33,4.98l-7.87-.63-.94,5.35,7.53,2.35c-.24,1.78-.41,3.57-.52,5.38l-7.8.64-.07,5.43,7.77,1.1c.05,1.52.15,3.04.3,4.57l-7.58,1.8.75,5.38,7.81-.09c.27,1.43.58,2.83.92,4.22l-7.27,2.91,1.54,5.21,7.76-1.24c.49,1.41,1.02,2.79,1.59,4.15l-6.77,3.98,2.3,4.92,7.54-2.4c.81,1.52,1.67,3.02,2.58,4.47l-6.1,5.04,3.05,4.49,7.15-3.61c1.08,1.42,2.22,2.8,3.39,4.13l-5.29,6.05,3.73,3.94,6.59-4.8c1.09,1.02,2.21,2.02,3.36,2.98l-4.36,6.86,4.29,3.33,5.86-5.81c1.77,1.21,3.59,2.35,5.46,3.41l-3.17,7.73,4.81,2.52,4.87-6.95c1.28.57,2.58,1.12,3.89,1.62l-2.02,8.27,5.13,1.78,3.86-7.75c1.56.43,3.14.81,4.74,1.14l-.7,8.68,5.35.94,2.64-8.47c1.65.18,3.32.31,5,.38l.73,8.9,5.43.07,1.28-9.02c1.38-.08,2.76-.19,4.15-.34l2.11,8.87,5.38-.75-.1-9.29c1.27-.27,2.52-.56,3.76-.89l3.33,8.71,5.45-1.61-1.89-9.26c1.3-.48,2.59-.99,3.85-1.53l4.69,8.28,5.15-2.4-3.32-9.05c1.41-.77,2.79-1.59,4.13-2.44l6.07,7.59,4.7-3.19-4.81-8.59c1.3-1.01,2.57-2.07,3.8-3.16l7.37,6.65,4.13-3.91-6.26-7.86c.94-1.01,1.86-2.05,2.74-3.11l8.43,5.55,3.49-4.49-7.49-6.93c1.12-1.64,2.17-3.33,3.16-5.05l9.43,4.04,2.64-5.03-8.71-5.57c.53-1.17,1.03-2.36,1.51-3.57l10.03,2.62,1.86-5.37-9.53-4.24c.41-1.46.79-2.93,1.12-4.42ZM454.4,212.34l-6.26-38.99-3.69.59c7.12-1.14,12.71-6.04,15.07-12.35l39.36,6.37c-4.94,21.58-21.87,39.27-44.48,44.37ZM391.13,185.72l35.2-18.72c4.22,5.21,11.03,8.08,18.12,6.94l-3.14.5,6.27,39.02c-23.12,2.47-44.85-8.89-56.45-27.75ZM449.18,153.57c.69,4.31-2.24,8.36-6.55,9.05-4.31.69-8.36-2.24-9.05-6.55-.69-4.31,2.24-8.36,6.55-9.05,4.31-.69,8.36,2.24,9.05,6.55ZM395.87,117.32l29.06,27.3c-2.38,3.82-3.44,8.49-2.67,13.28.17,1.05.42,2.07.75,3.05l-35.15,18.69c-2.22-4.8-3.83-9.98-4.71-15.45-2.8-17.4,2.33-34.25,12.72-46.86ZM465.35,100.93l-18.71,35.25c-2.63-.74-5.45-.94-8.33-.48-3.3.53-6.28,1.87-8.75,3.78l-28.99-27.23c8.36-8.02,19.15-13.68,31.46-15.66,11.74-1.89,23.22-.17,33.32,4.34ZM500.03,161.16l-39.28-6.36c0-1-.08-2.02-.25-3.05-.84-5.23-3.7-9.63-7.66-12.53l18.64-35.11c14.51,8.63,25.24,23.39,28.13,41.36.85,5.32.96,10.58.42,15.69Z"/>
    <path class="cls-3" d="M255.56,247.77l6.49-3.03-.88-5.38-7.11-.8c-1.01-2.6-2.5-4.97-4.35-6.99l2.45-6.72-4.43-3.18-5.6,4.46c-2.45-1.08-5.14-1.73-7.96-1.86l-3.03-6.5-5.38.88-.81,7.12c-2.59,1.01-4.95,2.48-6.98,4.32l-6.76-2.46-3.18,4.43,4.48,5.62c-1.09,2.46-1.74,5.16-1.88,8l-6.53,3.04.88,5.38,7.16.81c1.01,2.58,2.48,4.93,4.31,6.95l-2.47,6.77,4.43,3.18,5.63-4.49c2.46,1.08,5.15,1.74,7.98,1.87l3.04,6.52,5.38-.88.81-7.14c2.59-1.01,4.95-2.48,6.97-4.32l6.75,2.46,3.18-4.43-4.47-5.61c1.09-2.47,1.75-5.17,1.88-8.02ZM247.09,250.91c-2.31,7.73-10.45,12.13-18.18,9.83-7.73-2.31-12.13-10.45-9.83-18.18,2.31-7.73,10.45-12.13,18.18-9.83,7.73,2.31,12.13,10.45,9.83,18.18Z"/>
    <path class="cls-3" d="M382.48,277.58c.05-2.24-.04-4.5-.28-6.77l9.91-5.24-1.87-7.84-11.21-.19c-.89-2.35-1.94-4.61-3.13-6.77l6.99-8.6-4.77-6.49-10.3,4.1c-1.56-1.63-3.23-3.16-4.98-4.58l3.24-10.61-6.86-4.22-8,7.68c-2.26-1.02-4.6-1.88-6.99-2.57l-1.14-11.03-7.96-1.22-4.38,10.18c-2.24-.05-4.5.04-6.77.28l-5.24-9.91-7.84,1.87-.19,11.21c-2.35.89-4.61,1.94-6.77,3.13l-8.6-6.99-6.49,4.77,4.1,10.3c-1.63,1.56-3.16,3.23-4.58,4.98l-10.61-3.24-4.22,6.86,7.68,8c-1.02,2.26-1.88,4.6-2.57,6.99l-11.03,1.14-1.22,7.96,10.18,4.38c-.05,2.24.04,4.5.28,6.77l-9.91,5.24,1.87,7.84,11.21.19c.89,2.35,1.94,4.61,3.13,6.77l-6.99,8.6,4.77,6.49,10.3-4.1c1.56,1.63,3.23,3.16,4.98,4.58l-3.24,10.61,6.86,4.22,8-7.68c2.26,1.02,4.6,1.88,6.99,2.57l1.14,11.03,7.96,1.22,4.38-10.18c2.24.05,4.5-.04,6.77-.28l5.24,9.91,7.84-1.87.19-11.21c2.35-.89,4.61-1.94,6.77-3.13l8.6,6.99,6.49-4.77-4.1-10.3c1.63-1.56,3.16-3.23,4.58-4.98l10.61,3.24,4.22-6.86-7.68-8c1.02-2.26,1.88-4.6,2.57-6.99l11.03-1.14,1.22-7.96-10.18-4.38ZM365.78,287.19c-5.97,20.02-27.05,31.41-47.07,25.44-20.02-5.97-31.41-27.05-25.44-47.07,5.97-20.02,27.05-31.41,47.07-25.44,20.02,5.97,31.41,27.05,25.44,47.07Z"/>
    <path class="cls-3" d="M468.79,316.47c2.38-2.2,4.49-4.66,6.26-7.36l-4.28-7.41c1.43-2.87,2.44-5.96,2.96-9.2l7.79-3.52c.06-1.58.05-3.2-.09-4.82-.13-1.63-.37-3.22-.69-4.79l-8.27-2.19c-1.05-3.13-2.53-6-4.4-8.6l3.03-8.02c-2.2-2.35-4.67-4.46-7.37-6.22l-7.41,4.27c-2.86-1.43-5.93-2.44-9.23-2.97l-3.47-7.81c-1.61-.05-3.22-.04-4.86.09-1.62.14-3.24.39-4.77.7l-2.22,8.26c-3.14,1.05-6.02,2.55-8.6,4.41l-8.04-3c-2.36,2.19-4.45,4.66-6.25,7.34l4.29,7.43c-1.4,2.85-2.42,5.94-2.95,9.19l-7.8,3.51c-.06,1.59-.04,3.2.08,4.84.14,1.61.4,3.21.7,4.77l8.26,2.21c1.05,3.09,2.57,5.97,4.41,8.58l-3.04,8.01c2.22,2.38,4.67,4.47,7.37,6.25l7.42-4.27c2.84,1.4,5.94,2.42,9.2,2.96l3.53,7.79c1.58.07,3.22.04,4.84-.08,1.63-.15,3.2-.38,4.79-.71l2.19-8.26c3.14-1.05,6.02-2.54,8.62-4.42l7.99,3.03ZM453.75,309.08c-11.99,6.5-26.98,2.05-33.48-9.93-6.5-11.99-2.05-26.98,9.93-33.48,11.99-6.5,26.98-2.05,33.48,9.93,6.5,11.99,2.05,26.98-9.93,33.48Z"/>
    <g>
      <path class="cls-3" d="M337.84,110.94c-.21-3.39-.63-6.8-1.29-10.2l14.33-9.18-3.82-11.62-16.98,1.13c-1.65-3.45-3.52-6.73-5.59-9.84l9.48-13.89-8.04-9.22-15.06,7.5c-2.57-2.27-5.28-4.37-8.11-6.29l3.55-16.46-10.92-5.51-11.13,12.63c-3.55-1.25-7.19-2.26-10.9-3l-3.12-16.53-12.2-.84-5.34,15.95c-3.39.21-6.8.63-10.2,1.29l-9.18-14.33-11.62,3.82,1.13,16.98c-3.45,1.65-6.73,3.52-9.84,5.59l-13.89-9.48-9.22,8.04,7.5,15.06c-2.27,2.57-4.37,5.28-6.29,8.11l-16.46-3.55-5.51,10.92,12.63,11.13c-1.25,3.55-2.26,7.19-3,10.9l-16.53,3.12-.84,12.2,15.95,5.34c.21,3.39.63,6.8,1.29,10.2l-14.33,9.18,3.82,11.62,16.98-1.13c1.65,3.45,3.52,6.73,5.59,9.84l-9.48,13.89,8.04,9.22,15.06-7.5c2.57,2.27,5.28,4.37,8.11,6.29l-3.55,16.46,10.92,5.51,11.13-12.63c3.55,1.25,7.19,2.26,10.9,3l3.12,16.53,12.2.84,5.34-15.95c3.39-.21,6.8-.63,10.2-1.29l9.18,14.33,11.62-3.82-1.13-16.98c3.45-1.65,6.73-3.52,9.84-5.59l13.89,9.48,9.22-8.04-7.5-15.06c2.27-2.57,4.37-5.28,6.29-8.11l16.46,3.55,5.51-10.92-12.63-11.13c1.25-3.55,2.26-7.19,3-10.9l16.53-3.12.84-12.2-15.95-5.34ZM292.68,144.86c-16.03,19.38-44.74,22.09-64.12,6.06-19.38-16.03-22.09-44.74-6.06-64.12,16.03-19.38,44.74-22.09,64.12-6.06,19.38,16.03,22.09,44.74,6.06,64.12Z"/>
      <path class="cls-3" d="M311.63,134.48c10.3-29.85-5.55-62.39-35.39-72.69s-62.39,5.55-72.69,35.39c-10.3,29.85,5.55,62.39,35.39,72.69,29.85,10.3,62.39-5.55,72.69-35.39ZM299.58,130.32c-8,23.19-33.29,35.5-56.48,27.5-23.19-8-35.5-33.29-27.5-56.48,8-23.19,33.29-35.5,56.48-27.5,23.19,8,35.5,33.29,27.5,56.48Z"/>
    </g>
    <g>
      <path class="cls-3" d="M168.34,175.18l10.39-9.52-4.84-9.59-13.84,2.7c-3.44-4.28-7.62-7.85-12.3-10.56l.62-14.07-10.2-3.36-7.88,11.69c-5.24-.57-10.67-.21-16.05,1.21l-9.54-10.42-9.59,4.84,2.7,13.84c-4.27,3.43-7.83,7.59-10.55,12.25l-14.15-.62-3.36,10.2,11.73,7.9c-.58,5.27-.22,10.72,1.21,16.14l-10.46,9.58,4.84,9.59,13.92-2.71c3.42,4.25,7.57,7.79,12.2,10.5l-.62,14.18,10.2,3.36,7.92-11.76c5.25.58,10.69.22,16.08-1.2l9.57,10.45,9.59-4.84-2.71-13.89c4.27-3.42,7.82-7.59,10.54-12.24l14.12.62,3.36-10.2-11.7-7.88c.58-5.28.22-10.75-1.22-16.17ZM138.46,186.34c.11,7.15-5.59,13.03-12.74,13.14-7.15.11-13.03-5.59-13.14-12.74-.11-7.15,5.59-13.03,12.74-13.14s13.03,5.59,13.14,12.74Z"/>
      <path class="cls-3" d="M153.28,196.13c5.29-15.34-2.85-32.06-18.19-37.35-15.34-5.29-32.06,2.85-37.35,18.19-5.29,15.34,2.85,32.06,18.19,37.35,15.34,5.29,32.06-2.85,37.35-18.19ZM138.29,190.95c-2.44,7.06-10.13,10.8-17.19,8.37-7.06-2.44-10.8-10.13-8.37-17.19s10.13-10.8,17.19-8.37c7.06,2.44,10.8,10.13,8.37,17.19Z"/>
    </g>
  </g>
  <g>
    <path class="cls-27" d="M230.12,130.32v169.27c0,3.38,2.77,6.15,6.15,6.15h274.78c3.38,0,6.15-2.77,6.15-6.15v-169.27H230.12Z"/>
    <path class="cls-15" d="M517.42,130.61v-19.5c0-3.38-2.77-6.15-6.15-6.15H236.48c-3.38,0-6.15,2.77-6.15,6.15v19.5h287.09Z"/>
    <rect class="cls-27" x="241.22" y="113.95" width="7.33" height="7.33" rx="3.55" ry="3.55"/>
    <rect class="cls-19" x="255.44" y="113.97" width="7.33" height="7.33" rx="3.55" ry="3.55"/>
    <rect class="cls-30" x="270.39" y="113.97" width="7.33" height="7.33" rx="3.55" ry="3.55"/>
  </g>
  <g>
    <rect class="cls-21" x="240.79" y="143.98" width="207.61" height="151.29"/>
    <rect class="cls-27" x="371.2" y="157.03" width="65.86" height="53.11"/>
    <rect class="cls-27" x="253.29" y="157.03" width="107.34" height="125.78"/>
    <path class="cls-19" d="M328.64,236.53c0,4.07-1.13,7.88-3.1,11.13l12.53,7.57c3.3-5.46,5.21-11.85,5.21-18.7h-14.63Z"/>
    <path class="cls-34" d="M292.38,269.36c4.45,1.96,9.37,3.05,14.54,3.05,13.12,0,24.81-6.71,31.14-17.17l-12.53-7.57c-3.77,6.23-10.81,10.11-18.62,10.11-3.08,0-6.01-.65-8.66-1.82l-5.89,13.4Z"/>
    <path class="cls-15" d="M292.43,269.33l5.95-13.38c-4.87-2.17-8.78-6.09-10.94-10.97l-13.39,5.91c3.62,8.2,10.2,14.79,18.39,18.44Z"/>
    <path class="cls-15" d="M274.03,250.87l13.39-5.91c-1.18-2.66-1.83-5.6-1.83-8.69,0-3.86,1.02-7.47,2.79-10.6l-12.74-7.21c-2.98,5.26-4.69,11.34-4.69,17.81,0,5.2,1.1,10.14,3.07,14.6Z"/>
    <path class="cls-15" d="M300.38,216.12l-4.65-13.88c-8.59,2.8-15.76,8.72-20.17,16.43l12.74,7.21c2.65-4.6,6.94-8.12,12.08-9.76Z"/>
    <path class="cls-30" d="M307.13,200.38c-3.98,0-7.8.65-11.39,1.84l4.61,13.89c2.13-.71,4.41-1.1,6.78-1.1,11.88,0,21.52,9.63,21.52,21.52h14.63c0-19.96-16.18-36.15-36.15-36.15Z"/>
    <g>
      <rect class="cls-17" x="262.47" y="170.15" width="89" height="3.8"/>
      <rect class="cls-17" x="262.45" y="178.98" width="89" height="3.8"/>
      <rect class="cls-17" x="262.41" y="187.57" width="89" height="3.8"/>
    </g>
    <rect class="cls-27" x="371.2" y="216.21" width="65.86" height="66.6"/>
    <g>
      <rect class="cls-17" x="381.89" y="247.61" width="44.49" height="3.8"/>
      <rect class="cls-17" x="381.88" y="256.44" width="44.49" height="3.8"/>
      <rect class="cls-17" x="381.86" y="265.03" width="44.49" height="3.8"/>
    </g>
    <path class="cls-17" d="M430.99,204.72h-53.71c-.81,0-1.47-.63-1.47-1.41s.66-1.41,1.47-1.41h53.71c.81,0,1.47.63,1.47,1.41s-.66,1.41-1.47,1.41Z"/>
    <polygon class="cls-15" points="419.83 178.85 408.61 186.15 402.54 183.24 390 188.77 379.45 182.85 379.45 177.53 389.43 181.32 397.54 177.69 408.45 165.67 415.12 171.48 430.99 159.8 430.99 187.51 419.83 178.85"/>
    <polygon class="cls-34" points="389.77 193.3 402.47 187.7 408.93 190.81 419.61 183.86 430.99 192.69 430.99 196.86 379.45 196.86 379.45 187.52 389.77 193.3"/>
  </g>
  <g>
    <path class="cls-31" d="M171.31,339.45c-1.5,4.26-2.53,9.41-2.86,14.99-.84,14.34,1.51,19.5,5.66,42.5l5.13.36c2.16-11.01,4.18-30.57,5.08-46.02.22-3.72.37-7.36.48-10.89l-13.49-.94Z"/>
    <path class="cls-31" d="M197.97,339.03c-1.98,4-3.64,8.94-4.71,14.41-2.74,14.06-1.26,19.5-.56,42.83l4.72,1.09c3.51-10.57,9.89-28.5,12.1-41.14,2.21-12.64,1.87-15.42,2.65-20.07l-14.2,2.88Z"/>
    <path class="cls-14" d="M191.69,411.3c-2.12-2.62-5.17-1.4-7.91-6.21-2.74-4.82-3.41-7.35-3.41-7.35l-3.34-.41c-.18.41-.53.68-.92.65-.42-.03-.75-.39-.86-.87l-1.38-.03c-1.46.93-2.7,4.44-2.95,8.72-.16,2.75.12,5.24.7,6.98l1.92.13c-.13-1.98-.15-4.25-.05-6.65l1.97,1.31,2.37,5.64,14.32.99s1.66-.27-.46-2.89Z"/>
    <path class="cls-14" d="M210.49,412.56c-2.12-2.62-5.17-1.4-7.91-6.21-2.74-4.82-3.41-7.35-3.41-7.35l-3.34-.41c-.18.41-.53.68-.92.65-.42-.03-.75-.39-.86-.87l-1.38-.03c-1.46.93-2.7,4.44-2.95,8.72-.16,2.75.12,5.24.7,6.98l1.92.13c-.13-1.98-.15-4.25-.05-6.65l1.97,1.31,2.37,5.64,14.32.99s1.66-.27-.46-2.89Z"/>
    <path class="cls-31" d="M170.31,343.14c-1.98-3.57-5.94-10.71-7.12-15.44-2.74-10.95-5.38-15.31-.84-35.9l14.07-.34c2.99,9.41,6.02,26.32,7.57,39.75.37,3.24.66,6.4.89,9.49l-14.56,2.43Z"/>
    <path class="cls-31" d="M201.09,338.48c-1.61-3.62-4.81-10.87-5.84-15.61-2.39-11-4.51-15.43-1.63-35.8l10.69.12c2.53,9.47,5.31,26.42,6.85,39.85.37,3.24.68,6.4.94,9.48l-11.01,1.95Z"/>
    <path class="cls-31" d="M197.72,341.38c-1.38-3.65-4.14-10.96-5.08-15.72-2.17-11.02-4-15.5-2.1-35.73l8.67.4c2.26,9.51,4.88,26.48,6.42,39.91.37,3.24.69,6.4.97,9.48l-8.88,1.66Z"/>
    <g>
      <path class="cls-32" d="M194.16,200.45c-1.66,3.56,5.9,12.86,16.88,20.77,3.15,2.27,10.15,6.57,16.01,7.74,14.57,2.92,31.39.05,32.57-2.48,1.07-2.3-11.46-4.08-23.43-8.04-6.57-2.17-12.97-5.83-16.86-8.63-6.46-4.66-11.07-24.82-15.43-25.89-3.05-.75-9.07,15.06-9.75,16.52Z"/>
      <path class="cls-32" d="M252.48,224.36c0,3.62,5.57,6.56,10.5,6.56s8.79-5.6,8.79-9.22c0-2.72-5.69,2.38-8.86,2.13-1.05-.08,1.3-6.03.07-6.03-2.47,0-2.17,3.78-3.79,4.97-1.62,1.19-6.71-.22-6.71,1.6Z"/>
    </g>
    <g>
      <path class="cls-39" d="M204.62,152.18c-4.47,20.71-3.42,24.47-4.65,24.2-6.65-1.45-15.17-12.35-15.17-25.93s4.38-24.6,9.78-24.6,12.89,13.1,10.03,26.33Z"/>
      <path class="cls-20" d="M177.75,174.83c2.22,1.16,4.88,4.49,7.43,5.41,5.28,1.91,9.69-4.31,12.13-5.81-.96-1.74-4.4-4.16-4.4-6.65,0-3.39.18-6.38,1.82-8.17v-4.24h-9.92c-.44,7.91-3.11,14.84-7.06,19.46Z"/>
      <path class="cls-29" d="M202.23,137.35c-1.11-7.21-7.25-5.9-11.73-4.75-2.88.73-5.37,1.92-6.45,6.17-.65-.7-1.34,1.19-2.07,1.41-1.51.46-2.32,1.4-1.81,4.14.5,2.75,2.12,6.26,3.63,5.8.07-.02.14-.07.21-.1.53,2.2.25,4.12,1.38,5.67,2.21,3.03,6.45,4.71,9.27,4.75,9.2.14,8.68-15.89,7.57-23.09Z"/>
      <path class="cls-14" d="M205.44,131.84c-.74-4.93-11.19-9.33-18.36-8.12-4.56.77-6.66.74-10.58,6.12-3.92,5.38-4.03,29.03-3.37,30.85,1.64,4.5,8.83,11.06,11.06,11.17.32.02,1.1-7.85.87-14.1-.14-4.02-1.33-7.37-1.22-7.52-.79-.26-1.59-.94-2.14-1.94-.92-1.69-.76-3.6.35-4.28.91-.56,2.16-.1,3.09,1,.75-3.74,2.3-7.69,8.84-6.5,7.16,1.3,12.19-1.74,11.45-6.68Z"/>
    </g>
    <path class="cls-34" d="M162.64,237.05c5.54-8.88,10.95-27.04,10.95-33.61,0-8.84-5.46-16-12.2-16-1.45,0-2.83.35-4.12.96,3.68-10.37,21.11-18.48,24.41-20.67.5-.33-.21.53.27.27l10.32,10.08,4.54-4.82c3.77,2.72,11.93,9.77,14.27,21.29,3.08,15.14-6.96,26.12-7.51,36.66-.54,10.54-.54,30.39-.54,30.39h-41.28s1.47-10.45.9-24.54Z"/>
    <g>
      <path class="cls-19" d="M199.55,173.32c-.21-.17-.42-.34-.62-.5l.54.58.08-.08Z"/>
      <path class="cls-19" d="M168.96,250.71s1.47-8.12.9-21.46c5.54-8.41,5.81-23.41,5.81-29.63,0-8.37-4.99-14.62-11.73-14.62-.6,0-2.64,2.04-6.68,3.4.53-.09,3.58-.96,4.12-.96,6.74,0,12.41,8.33,12.37,12.52,0,6.22-5.4,23.41-10.95,31.82.57,13.34-.9,23.24-.9,23.24l31.11,2.82,10.17-2.82s0-.12,0-.35l-34.22-3.96Z"/>
    </g>
    <path class="cls-15" d="M162.55,252.06c.35-.56.72-1.1,1.12-1.62,7.51,3.05,19.55,5.18,27.73,5.75,6.68.46,10.37-.63,12.42-2.65.04.11.1.21.14.32,6.51,17.15,8.41,62.77,8.41,62.77,0,0-55.87,5.37-55.36,2.2,4.19-25.86-3.48-52.12,5.55-66.78Z"/>
    <g>
      <path class="cls-32" d="M160.23,187.47c5.2.48,10.42,1.46,13.52,12.48-.54,5.25-1.63,7.64-2.89,14.96-3.05,17.76-9.68,31.48-14.82,30.66s-6.68-15.87-3.77-33.65c2.14-13.1,4.99-20.42,7.95-24.46Z"/>
      <path class="cls-32" d="M159.77,243.81c1.88,1.82,7.38-2.74,19.54-14.51,12.16-11.76,20.5-22.77,18.62-24.59s-13.26,6.24-25.42,18.01c-12.16,11.76-14.61,19.27-12.73,21.09Z"/>
      <path class="cls-32" d="M191.64,198.7c-2.45,5.06-1.96,10.29,1.1,11.68,3.06,1.39,4.52-.27,6.97-5.33,2.45-5.06,3.14-7.07.08-8.46-3.06-1.39-5.7-2.95-8.15,2.11Z"/>
    </g>
    <path class="cls-25" d="M255.86,230.74l-.91-.9c-.47-.47-.49-1.2-.05-1.64l17.67-17.8c.44-.44,1.17-.42,1.64.04l.91.9c.47.47.49,1.2.05,1.64l-17.67,17.8c-.44.44-1.17.42-1.64-.04Z"/>
    <path class="cls-23" d="M169.07,318.78s-1.77-42.6-7.77-60.94c-7,14.41-.94,38.2-4.05,62,6.9-.58,11.81-1.05,11.81-1.05Z"/>
    <circle class="cls-27" cx="192.82" cy="181.98" r=".84"/>
    <circle class="cls-27" cx="193.66" cy="188.93" r=".84"/>
  </g>
  <g>
    <ellipse class="cls-4" cx="408.17" cy="450.66" rx="57.29" ry="9.86"/>
    <g>
      <rect class="cls-9" x="438.46" y="343.02" width="71.85" height="17.54" rx="5.87" ry="5.87"/>
      <g>
        <g>
          <polygon class="cls-9" points="514.86 439.15 470.48 435.66 470.48 428.32 514.86 436.01 514.86 439.15"/>
          <polygon class="cls-9" points="426.1 439.15 470.48 435.66 470.48 428.32 426.1 436.01 426.1 439.15"/>
          <ellipse class="cls-9" cx="515.2" cy="446.13" rx="4.71" ry="4.89"/>
          <ellipse class="cls-9" cx="426.1" cy="445.43" rx="4.71" ry="4.89"/>
          <rect class="cls-9" x="512.48" y="439.01" width="1.71" height="3.28"/>
          <rect class="cls-9" x="427.02" y="438.32" width="1.71" height="3.28"/>
          <g>
            <ellipse class="cls-9" cx="470.48" cy="446.13" rx="4.71" ry="4.89"/>
            <rect class="cls-9" x="469.62" y="437.65" width="1.71" height="5.23"/>
            <rect class="cls-9" x="467.79" y="433.74" width="5.38" height="4.54"/>
          </g>
        </g>
        <g>
          <rect class="cls-9" x="459.72" y="354.74" width="21.52" height="39.86"/>
          <rect class="cls-9" x="466.78" y="386.54" width="7.4" height="42.25"/>
        </g>
      </g>
      <g>
        <polygon class="cls-37" points="360.7 446.48 386.14 448.39 389.69 448.66 394.14 448.99 395.34 433.03 382.68 432.21 375.92 437.86 360.85 444.42 360.7 446.48"/>
        <rect class="cls-41" x="384.02" y="426.93" width="11.32" height="5.67" transform="translate(33.17 -27.89) rotate(4.28)"/>
      </g>
      <g>
        <polygon class="cls-37" points="410.34 450.19 435.85 450.82 439.41 450.91 443.87 451.02 444.26 435.02 431.58 434.83 425.12 440.81 410.39 448.12 410.34 450.19"/>
        <rect class="cls-41" x="432.79" y="429.21" width="11.32" height="5.67" transform="translate(10.89 -10.78) rotate(1.43)"/>
      </g>
      <path class="cls-14" d="M415.94,375.95c5.92-11.15,36.29-6.08,57.71-24.3,21.42-18.22-33.29-20.63-33.29-20.63,0,0-31.47,17.41-37.13,19.03-5.67,1.62-8.76,7.93-10.71,18.29-1.94,10.36-16.53,63.87-16.53,63.87l22.93,2.06s11.1-47.16,17.02-58.31Z"/>
      <path class="cls-1" d="M453.16,371.98c3.76-12.05,29.74-7.1,47.43-28.96,17.69-21.86-34.25-7.18-34.25-7.18,0,0-25.97,13.55-31.24,16.19-5.27,2.63-7.15,9.41-7.15,19.95v63.62h18.44s3.01-51.57,6.78-63.62Z"/>
      <path class="cls-30" d="M505.85,335.09s-3.99,10.71-34.74,7.24c-30.75-3.47-34.13-11.79-34.13-11.79,0,0,2.62-51.15,5.64-66.96,3.01-15.81,18.07-21.08,18.07-21.08l12.96,5.35,12.64-5.35s18.07-.51,22.59,18.31c4.52,18.82-3.01,74.29-3.01,74.29Z"/>
      <path class="cls-13" d="M470.92,342.64c.2.02.4.04.6.06,8.54-26.58,14.57-68.44,14.57-99.9,0,0,.33,3.5-13.11,5.35-13.44,1.85-11.15-5.35-11.15-5.35-7.2,15.34-6.05,69.18-12.65,95.5,5.01,1.65,12,3.24,21.74,4.34Z"/>
      <path class="cls-15" d="M438.18,273.95l-1.28,16.9-22.68,21.96c-.3,3.92,6.37,8.41,10.29,8.7l13.3-1.77c.76-13.04,2.33-37.34,4.15-51.55-2.09,1.12-3.59,3.24-3.78,5.76Z"/>
      <path class="cls-41" d="M475.07,315.35l-3.47-6.82-22.29,6.46c-2.75-.68-6.26-1.08-10.1-1.08-8.8,0-15.93,2.14-15.93,4.78s7.13,4.78,15.93,4.78c5.72,0,10.73-.9,13.54-2.26l22.32-5.85Z"/>
      <path class="cls-30" d="M515.27,300.08c0-7.9-1.88-32-6.4-39.28-4.52-7.28-2.79-.11-8.48.16h0c-5.69.27-10.12,5.14-9.86,10.82,0,0,5.19,26.57,1.41,30.26s-35.02,6.32-35.02,6.32v18.44s46.81-8.32,51.07-10.18,7.28-10.32,7.27-16.54Z"/>
      <path class="cls-15" d="M509.94,263.63c1.45,11.68,1.18,28.06,1.19,33.66,0,6.22-3.01,14.68-7.27,16.54-2.49,1.09-19.6,6.32-33.39,10.47,14.17-2.61,34.52-6.48,37.26-7.68,4.26-1.86,7.28-10.32,7.27-16.54,0-7.07-1.51-27.1-5.06-36.46Z"/>
      <path class="cls-41" d="M425.51,320.95c-.76-2.66-2.46-5.08-4.86-7.11-2.29-.38-4.91-.6-7.72-.6-8.8,0-15.93,2.14-15.93,4.78s7.13,4.78,15.93,4.78c5.12,0,9.66-.73,12.58-1.85Z"/>
      <path class="cls-7" d="M463.11,231.82v14.08s10.99,12.05,21.09.28l-.88-14.36h-20.21Z"/>
      <path class="cls-10" d="M473.87,241.45c-.27.04-.54.07-.81.09-3.38.25-6.51-.7-9.04-2.77-.23-.19-.23-.51,0-.72.22-.21.59-.23.82-.04,2.3,1.87,5.13,2.74,8.18,2.51,3.19-.24,5.91-1.74,8.1-4.45.19-.24.55-.3.81-.15.26.15.32.47.13.7-2.19,2.72-5,4.37-8.18,4.82Z"/>
      <path class="cls-41" d="M459,215.81c-1.32,11.48.17,23.9,9.19,24.71,9.38.84,19.28-4.51,20.6-15.99,1.32-11.48-4.84-22.33-13.76-24.22-8.92-1.9-14.7,4.02-16.02,15.5Z"/>
      <path class="cls-8" d="M458.4,206.03c-.47-1.19-.32-2.59.68-4.15.2-.31.43-.63.71-.97,1.13-1.45,2.78-2.81,4.28-3.99.05,0,.11,0,.15.02,7.41-2.3,15.98-2.86,22.68.42,3.28,1.55,5.11,3.89,5.94,6.58,1.74,3.62,1.22,9.46.27,13.85-.26,1.2-.54,2.28-.83,3.19-1.3,4.21-2.97,9.93-6.43,13.12-.72.57-1.88,1.17-2.94,1.04-.06-.01-.11-.02-.15-.03.12-.19.25-.39.36-.6.34-1.28.27-2.71.27-3.98.53.47.95.72,1.43.75.47.04.99-.15,1.7-.57,1.83-1,2.47-2.89,2.55-4.87,0-.51-.09-1.4-.31-2.25-.01,0-.01-.03-.02-.04-.16-.6-.4-1.17-.74-1.55-.27-.3-.59-.49-1.01-.49-.57,0-1.53.72-2.03,1.32-.04.06-.08.11-.11.15-.11.6-.24,1.2-.39,1.78-.16.68-.36,1.35-.57,2.01-.81.4-1.64.94-2.54,1.03l-.04-.44c1.3-3.64,1.27-7.49,1.12-11.34-.04-.94-.08-1.88-.11-2.82-.04-.87-.06-1.74-.06-2.61v-.14c-4.02-.25-8.13-.51-11.58-1.97,1.34.59,2.48,1.4,3.52,2.31.35.3.69.61,1.02.92.8.75,1.57,1.52,2.38,2.23-4.59.33-11.44-2.21-16.1-5.02-.67-.41-1.29-.82-1.86-1.23l-.02.02-.02.03c-.09.99-.15,2-.2,3.02-.2,3.62-.21,7.38.14,11.03-.06,0-.14,0-.21.02-.19-.97-.47-1.91-.73-2.85-.35-1.28-.69-2.56-.79-3.91-.21-2.64-.85-6.57.58-9.02Z"/>
      <path class="cls-8" d="M475.02,200.32c0,3.71-10.09,5.5-13.89,5.5s-6.88-3.01-6.88-6.72,3.08-6.72,6.88-6.72,13.89,4.22,13.89,7.93Z"/>
      <path class="cls-8" d="M465.58,238.64c-2.91-.1-4.92-1.25-6.24-3.05.6,5.08,2.73,9.12,7.47,9.51,7.48.61,15.37-3.26,16.42-11.57.1-.8.15-1.6.14-2.38-3.64,5.18-10.93,7.73-17.79,7.49Z"/>
      <g>
        <rect class="cls-14" x="403.21" y="312.99" width="37.81" height="5.29"/>
        <polygon class="cls-14" points="408.17 317.76 355.92 317.76 338.83 276.86 391.08 276.86 408.17 317.76"/>
        <polygon class="cls-14" points="405.71 318.3 353.47 318.3 336.38 277.4 388.62 277.4 405.71 318.3"/>
      </g>
      <g>
        <rect class="cls-35" x="345.02" y="317.64" width="3.5" height="131.32" transform="translate(167.61 -101.54) rotate(21.86)"/>
        <rect class="cls-35" x="513.51" y="318.33" width="3.5" height="131.32" transform="translate(179.98 -164.22) rotate(21.86)"/>
        <rect class="cls-35" x="586.76" y="316.05" width="3.5" height="131.32" transform="translate(1276.82 516.91) rotate(158.14)"/>
        <rect class="cls-35" x="418.26" y="317.91" width="3.5" height="131.32" transform="translate(952.62 583.21) rotate(158.14)"/>
      </g>
      <rect class="cls-8" x="343.95" y="318.53" width="236.41" height="4.78" rx="1.6" ry="1.6"/>
    </g>
  </g>
  <g>
    <g>
      <polygon class="cls-40" points="280.13 440.78 244.26 440.78 240.91 439.22 240.91 420.61 280.13 420.61 280.13 440.78"/>
      <rect class="cls-27" x="280.01" y="420.61" width="36.57" height="20.17"/>
      <path class="cls-38" d="M295.4,439.1h-52.34c-.49,0-.93-.28-1.25-.74s-.52-1.09-.52-1.78v-12.61c0-1.39.79-2.52,1.77-2.52h52.34s0-1.68,0-1.68h-52.34c-1.63,0-2.95,1.89-2.95,4.2v12.61c0,2.32,1.32,4.2,2.95,4.2h52.34s0-1.68,0-1.68Z"/>
      <rect class="cls-11" x="295.4" y="419.76" width="24.18" height="1.68"/>
      <rect class="cls-11" x="295.4" y="439.1" width="24.18" height="1.68"/>
      <g class="cls-5">
        <line class="cls-6" x1="280.01" y1="423.55" x2="316.58" y2="423.55"/>
        <rect class="cls-36" x="280.01" y="423.3" width="36.57" height=".5"/>
      </g>
      <g class="cls-5">
        <line class="cls-6" x1="280.01" y1="426.91" x2="316.58" y2="426.91"/>
        <rect class="cls-36" x="280.01" y="426.66" width="36.57" height=".5"/>
      </g>
      <g class="cls-5">
        <line class="cls-6" x1="280.01" y1="430.27" x2="316.58" y2="430.27"/>
        <rect class="cls-36" x="280.01" y="430.02" width="36.57" height=".5"/>
      </g>
      <g class="cls-5">
        <line class="cls-6" x1="280.01" y1="433.53" x2="316.58" y2="433.53"/>
        <rect class="cls-36" x="280.01" y="433.28" width="36.57" height=".5"/>
      </g>
      <g class="cls-5">
        <line class="cls-6" x1="280.01" y1="436.79" x2="316.58" y2="436.79"/>
        <rect class="cls-36" x="280.01" y="436.53" width="36.57" height=".5"/>
      </g>
      <rect class="cls-38" x="232.2" y="419.76" width="30.75" height="21.01" rx="10.17" ry="10.17"/>
      <rect class="cls-40" x="240.22" y="421.45" width="28.89" height="17.65" rx="8.54" ry="8.54"/>
      <g class="cls-33">
        <rect class="cls-36" x="243.48" y="423.4" width="36.09" height=".5"/>
      </g>
      <g class="cls-33">
        <rect class="cls-36" x="241.28" y="426.76" width="38.29" height=".5"/>
      </g>
      <g class="cls-33">
        <rect class="cls-36" x="240.22" y="430.12" width="39.34" height=".5"/>
      </g>
      <g class="cls-33">
        <rect class="cls-36" x="241.28" y="433.38" width="38.29" height=".5"/>
      </g>
      <g class="cls-33">
        <rect class="cls-36" x="243.48" y="436.64" width="36.09" height=".5"/>
      </g>
    </g>
    <g>
      <rect class="cls-27" x="264.14" y="392.12" width="39.51" height="12.27"/>
      <path class="cls-28" d="M296.07,403.37h-31.85c-.3,0-.57-.17-.76-.45s-.32-.66-.32-1.08v-7.67c0-.85.48-1.53,1.08-1.53h31.85s0-1.02,0-1.02h-31.85c-.99,0-3.14,1.15-3.14,2.56v7.67c0,1.41,2.15,2.56,3.14,2.56h31.85s0-1.02,0-1.02Z"/>
      <rect class="cls-28" x="295.84" y="391.61" width="9.33" height="1.02"/>
      <rect class="cls-28" x="295.84" y="403.37" width="9.33" height="1.02"/>
      <g class="cls-5">
        <line class="cls-6" x1="264.14" y1="393.91" x2="303.65" y2="393.91"/>
        <rect class="cls-36" x="264.14" y="393.75" width="39.51" height=".31"/>
      </g>
      <g class="cls-5">
        <line class="cls-6" x1="264.14" y1="395.95" x2="303.65" y2="395.95"/>
        <rect class="cls-36" x="264.14" y="395.8" width="39.51" height=".31"/>
      </g>
      <g class="cls-5">
        <line class="cls-6" x1="264.14" y1="398" x2="303.65" y2="398"/>
        <rect class="cls-36" x="264.14" y="397.85" width="39.51" height=".31"/>
      </g>
      <g class="cls-5">
        <line class="cls-6" x1="264.14" y1="399.98" x2="303.65" y2="399.98"/>
        <rect class="cls-36" x="264.14" y="399.83" width="39.51" height=".31"/>
      </g>
      <g class="cls-5">
        <line class="cls-6" x1="264.14" y1="401.96" x2="303.65" y2="401.96"/>
        <rect class="cls-36" x="264.14" y="401.81" width="39.51" height=".31"/>
      </g>
      <g class="cls-5">
        <line class="cls-6" x1="283.77" y1="391.25" x2="300.28" y2="391.25"/>
      </g>
      <path class="cls-15" d="M264.33,398.15h0c0-3.02,2.16-5.57,5.02-6.23-.64-.21-1.31-.32-2.02-.32h-7.36c-3.57,0-6.49,2.88-6.49,6.39h0c0,3.52,2.92,6.39,6.49,6.39h7.36c.5,0,.99-.06,1.46-.17-2.59-.84-4.47-3.25-4.47-6.07Z"/>
      <path class="cls-28" d="M277.79,403.37h-8.28c-2.95,0-5.37-2.42-5.37-5.37h0c0-2.95,2.42-5.37,5.37-5.37h8.28c.17,0,.34,0,.51.02-.98-.61-2.14-.97-3.37-.97h-5.93c-3.52,0-6.39,2.88-6.39,6.39h0c0,3.52,2.88,6.39,6.39,6.39h5.93c1.36,0,2.62-.43,3.66-1.16-.26.04-.53.06-.8.06Z"/>
    </g>
    <g>
      <rect class="cls-27" x="256.01" y="404.99" width="47.12" height="14.64"/>
      <path class="cls-26" d="M294.09,418.41h-37.99c-.35,0-.68-.21-.91-.54s-.38-.79-.38-1.29v-9.15c0-1.01.58-1.83,1.28-1.83h37.99v-1.22h-37.99c-1.18,0-9.36,1.37-9.36,3.05v9.15c0,1.68,8.18,3.05,9.36,3.05h37.99v-1.22Z"/>
      <rect class="cls-26" x="293.83" y="404.38" width="11.13" height="1.22"/>
      <rect class="cls-26" x="293.83" y="418.41" width="11.13" height="1.22"/>
      <g class="cls-5">
        <rect class="cls-36" x="256.01" y="406.94" width="47.12" height=".37"/>
      </g>
      <g class="cls-5">
        <rect class="cls-36" x="256.01" y="409.38" width="47.12" height=".37"/>
      </g>
      <g class="cls-5">
        <rect class="cls-36" x="256.01" y="411.82" width="47.12" height=".37"/>
      </g>
      <g class="cls-5">
        <rect class="cls-36" x="256.01" y="414.19" width="47.12" height=".37"/>
      </g>
      <g class="cls-5">
        <rect class="cls-36" x="256.01" y="416.55" width="47.12" height=".37"/>
      </g>
      <path class="cls-30" d="M256.23,412.19h0c0-3.6,2.57-6.64,5.99-7.43-.76-.25-1.57-.38-2.41-.38h-14.39c-4.26,0-7.74,3.43-7.74,7.63h0c0,4.19,3.48,7.63,7.74,7.63h14.39c.6,0,1.18-.07,1.74-.2-3.09-1-5.33-3.88-5.33-7.24Z"/>
      <path class="cls-26" d="M279.25,418.41h-16.84c-3.52,0-6.41-2.88-6.41-6.41h0c0-3.52,2.88-6.41,6.41-6.41h16.84c.2,0,.41.01.61.03-1.17-.73-9.5-1.16-10.98-1.16h-7.07c-4.19,0-7.63,3.43-7.63,7.63h0c0,4.19,3.43,7.63,7.63,7.63h7.07c1.62,0,10.08-.51,11.32-1.39-.31.05-.63.07-.95.07Z"/>
    </g>
  </g>
  <g>
    <polygon class="cls-40" points="551.27 317.14 528.18 317.14 526.02 316.14 526.02 304.16 551.27 304.16 551.27 317.14"/>
    <rect class="cls-2" x="551.19" y="304.16" width="23.54" height="12.98"/>
    <path class="cls-38" d="M561.1,316.06h-33.7c-.31,0-.6-.18-.81-.48s-.33-.7-.33-1.15v-8.12c0-.9.51-1.62,1.14-1.62h33.7s0-1.08,0-1.08h-33.7c-1.05,0-1.9,1.21-1.9,2.71v8.12c0,1.49.85,2.71,1.9,2.71h33.7s0-1.08,0-1.08Z"/>
    <rect class="cls-11" x="561.1" y="303.62" width="15.57" height="1.08"/>
    <rect class="cls-11" x="561.1" y="316.06" width="15.57" height="1.08"/>
    <g class="cls-5">
      <line class="cls-6" x1="551.19" y1="306.05" x2="574.73" y2="306.05"/>
      <rect class="cls-36" x="551.19" y="305.89" width="23.54" height=".32"/>
    </g>
    <g class="cls-5">
      <line class="cls-6" x1="551.19" y1="308.22" x2="574.73" y2="308.22"/>
      <rect class="cls-36" x="551.19" y="308.05" width="23.54" height=".32"/>
    </g>
    <g class="cls-5">
      <line class="cls-6" x1="551.19" y1="310.38" x2="574.73" y2="310.38"/>
      <rect class="cls-36" x="551.19" y="310.22" width="23.54" height=".32"/>
    </g>
    <g class="cls-5">
      <line class="cls-6" x1="551.19" y1="312.48" x2="574.73" y2="312.48"/>
      <rect class="cls-36" x="551.19" y="312.31" width="23.54" height=".32"/>
    </g>
    <g class="cls-5">
      <line class="cls-6" x1="551.19" y1="314.57" x2="574.73" y2="314.57"/>
      <rect class="cls-36" x="551.19" y="314.41" width="23.54" height=".32"/>
    </g>
    <rect class="cls-38" x="520.42" y="303.62" width="19.8" height="13.53" rx="6.55" ry="6.55"/>
    <rect class="cls-40" x="525.58" y="304.7" width="18.6" height="11.36" rx="5.5" ry="5.5"/>
    <g class="cls-33">
      <rect class="cls-36" x="527.67" y="305.96" width="23.23" height=".32"/>
    </g>
    <g class="cls-33">
      <rect class="cls-36" x="526.26" y="308.12" width="24.65" height=".32"/>
    </g>
    <g class="cls-33">
      <rect class="cls-36" x="525.58" y="310.29" width="25.33" height=".32"/>
    </g>
    <g class="cls-33">
      <rect class="cls-36" x="526.26" y="312.38" width="24.65" height=".32"/>
    </g>
    <g class="cls-33">
      <rect class="cls-36" x="527.67" y="314.48" width="23.23" height=".32"/>
    </g>
  </g>
  <path class="cls-34" d="M199.28,55.26c-.73-3.03-3.71-6.32-6.79-6.95-1.55-.32-3.13-.43-4.45-.43-13.24,0-42.23.9-56.19.29-6.71-.29-9.27,2.88-9.38,7.42-.33,13.61,7.65,41.02,18.81,41.02,26.01,0,42.98-1.17,42.98-1.17,0,0,7.59,9.56,8.58,10.39.99.83,2.03,1.61,2.24.36,1.36-8.42,6.46-41.54,4.19-50.93Z"/>
  <g>
    <circle class="cls-27" cx="148.56" cy="77.36" r="3.48"/>
    <circle class="cls-27" cx="162.29" cy="77.36" r="3.48"/>
    <circle class="cls-27" cx="176.16" cy="77.36" r="3.48"/>
  </g>
  <g>
    <g class="cls-22">
      <path class="cls-24" d="M485.98,142.64h-2.26v-1.48h2.26v-2.62h1.38v2.62h2.26v1.48h-2.26v2.62h-1.38v-2.62Z"/>
    </g>
    <path class="cls-30" d="M499.36,119.47c-3.41-18.46-34.02-28.17-55.96-24.6-21.94,3.57-39.42,19.76-34.81,39.87,5.26,22.98,25.22,30.53,47.16,26.96,7.2-1.17,14.73-4.14,21.49-8.25,1,2.77,1.56,5.84,1.56,9.09,0,2.79-.43,5.45-1.18,7.9,6.36-3.26,10.85-11.13,10.85-20.33,0-1.67-.15-3.3-.43-4.86,8.01-7.64,12.96-16.91,11.32-25.78Z"/>
    <g>
      <rect class="cls-27" x="431.72" y="118.05" width="40.94" height="2.05"/>
      <rect class="cls-27" x="431.72" y="123.79" width="40.94" height="2.05"/>
      <rect class="cls-27" x="431.72" y="129.54" width="40.94" height="2.05"/>
      <rect class="cls-27" x="431.72" y="135.16" width="29.83" height="2.05"/>
    </g>
  </g>
  <g>
    <g>
      <path class="cls-34" d="M568.4,111.36v8.28h1.79v-8.28c0-.6-.4-1.08-.89-1.08s-.89.48-.89,1.08Z"/>
      <path class="cls-34" d="M568.4,147.53c0,.6.4,1.08.89,1.08s.89-.48.89-1.08v-7.78h-1.79v7.78Z"/>
      <path class="cls-34" d="M550.13,129.45c0,.49.48.89,1.08.89h8.27v-1.79h-8.27c-.6,0-1.08.4-1.08.89Z"/>
      <path class="cls-34" d="M587.37,128.55h-7.78v1.79h7.78c.6,0,1.08-.4,1.08-.89s-.48-.89-1.08-.89Z"/>
    </g>
    <g>
      <path class="cls-34" d="M555.87,117.29l5.85,5.85,1.26-1.26-5.85-5.85c-.42-.42-1.05-.48-1.4-.13s-.29.97.13,1.4Z"/>
      <path class="cls-34" d="M581.44,142.87c.42.42,1.05.48,1.4.13s.29-.97-.13-1.4l-5.5-5.5-1.26,1.26,5.5,5.5Z"/>
      <path class="cls-34" d="M555.74,143c.35.35.97.29,1.4-.13l5.85-5.85-1.26-1.26-5.85,5.85c-.42.42-.48,1.05-.13,1.4Z"/>
      <path class="cls-34" d="M581.44,116.03l-5.5,5.5,1.26,1.26,5.5-5.5c.42-.42.48-1.05.13-1.4s-.97-.29-1.4.13Z"/>
    </g>
  </g>
  <g>
    <g>
      <path class="cls-15" d="M64.99,233.7v6.39h1.38v-6.39c0-.46-.31-.83-.69-.83s-.69.37-.69.83Z"/>
      <path class="cls-15" d="M64.99,261.63c0,.46.31.83.69.83s.69-.37.69-.83v-6h-1.38v6Z"/>
      <path class="cls-15" d="M50.88,247.66c0,.38.37.69.83.69h6.39v-1.38h-6.39c-.46,0-.83.31-.83.69Z"/>
      <path class="cls-15" d="M79.64,246.97h-6v1.38h6c.46,0,.83-.31.83-.69s-.37-.69-.83-.69Z"/>
    </g>
    <g>
      <path class="cls-15" d="M55.32,238.28l4.52,4.52.98-.98-4.52-4.52c-.33-.33-.81-.37-1.08-.1s-.22.75.1,1.08Z"/>
      <path class="cls-15" d="M75.06,258.02c.33.33.81.37,1.08.1s.22-.75-.1-1.08l-4.25-4.25-.98.98,4.25,4.25Z"/>
      <path class="cls-15" d="M55.22,258.13c.27.27.75.22,1.08-.1l4.52-4.52-.98-.98-4.52,4.52c-.33.33-.37.81-.1,1.08Z"/>
      <path class="cls-15" d="M75.06,237.3l-4.25,4.25.98.98,4.25-4.25c.33-.33.37-.81.1-1.08s-.75-.22-1.08.1Z"/>
    </g>
  </g>
  <path class="cls-34" d="M244.41,331.31h-5.11v-3.06h5.11v-5.41h3.13v5.41h5.11v3.06h-5.11v5.41h-3.13v-5.41Z"/>
  <path class="cls-30" d="M472.61,48.81h-5.11v-3.06h5.11v-5.41h3.13v5.41h5.11v3.06h-5.11v5.41h-3.13v-5.41Z"/>
  <path class="cls-30" d="M509.48,72.38h-3.3v-1.98h3.3v-3.5h2.02v3.5h3.3v1.98h-3.3v3.5h-2.02v-3.5Z"/>
</svg>