<?xml version="1.0" encoding="UTF-8"?>
<svg id="Layer_1" data-name="Layer 1" xmlns="http://www.w3.org/2000/svg" viewBox="0 0 365.31 130">
  <defs>
    <style>
      .cls-1 {
        fill: #443a97;
      }

      .cls-2 {
        fill: #fff;
      }
    </style>
  </defs>
  <g>
    <polygon class="cls-1" points="57 0 22 102 0 102 35 0 57 0"/>
    <g>
      <path d="M302,66h-20v-11h33c4.06,49.86-71.24,46.25-66.87-1.38,2.32-25.29,32.6-38.44,53.21-24.45,1.26.85,8.47,7.71,8.63,8.4.48,2.16-8.74,5.93-10.49,7.32-13.71-17.59-41.04-8.2-38.47,15.63,2.23,20.71,33.98,24.85,41,5.49Z"/>
      <path d="M225,63V25h13v65l-9.79-.22-27.21-38.78v37.5c-3.18,3-8.85.92-13,1.5V25l10.57.93,26.43,37.07Z"/>
      <polygon points="177 25 177 37 150 37 150 51 175 51 175 63 150 63 150 77 177 77 177 90 137 90 137 25 177 25"/>
      <path d="M364,25v12h-27v14h25v12h-25v14h26.5c2.39,2.72,2.43,10.17,0,13h-38.5V25h39Z"/>
      <polygon points="85 25 100.5 74.01 116 25 130 25 108.52 89.02 92.98 89.52 71 25 85 25"/>
      <path d="M78,90h-14l-4.5-12h-25.5l4-12h18c-.6-7.02-8.56-19.28-8.56-25.5,0-.81,3.95-14.99,4.57-15.5.26-.21,2.53-.15,3.03.46l22.96,64.54Z"/>
    </g>
  </g>
  <g>
    <path d="M220,130c-8.99-3.62-13.95-11.4-9.39-20.89,4.31-8.98,19.63-10.19,23.38-.13l-4.47,2.06c-6.75-10.28-20.53,1.16-13.54,10.49,3.36,4.49,10.99,4.24,13.57-.59,9.31,2.93,1.07,6.74-3.54,9.06h-6Z"/>
    <path d="M252.9,103.1l8.09,25.89c-6.37,1.79-5.29-3.37-6.95-4.54-1.04-.74-8.07-.8-9.42-.33-2.09.74-1.47,6.95-7.62,4.87l8.09-25.89h7.8ZM249.99,110c-2.58-.41-1.55.27-2.08,1.41-.59,1.26-2.54,7.96-1.91,8.59h6l-2.01-10Z"/>
    <path d="M335.9,103.1l8.09,25.89c-6.37,1.79-5.29-3.37-6.95-4.54-1.04-.74-8.07-.8-9.42-.33-2.09.74-1.47,6.95-7.62,4.87l8.09-25.89h7.8ZM332.99,110c-2.58-.41-1.55.27-2.08,1.41-.59,1.26-2.54,7.96-1.91,8.59h6l-2.01-10Z"/>
    <path d="M266,103c7.6.19,19.1-2.48,19.09,8.5s-12.03,7.11-13.66,9.44l-.43,8.07h-5.01v-26ZM278.74,108.25c-3.02-2.57-7.83-2.13-7.83,3.25,0,10.16,13.68,1.73,7.83-3.25Z"/>
    <polygon points="320 103 320.01 108.01 313 108 313 129 308 129 308 108 300.99 108.01 301 103 320 103"/>
    <polygon points="354 103 354 124 365.01 123.99 365 129 349 129 349 103 354 103"/>
    <rect x="290" y="103" width="6" height="26"/>
    <path class="cls-2" d="M249.99,110l2.01,10h-6c-.63-.62,1.32-7.33,1.91-8.59.53-1.14-.49-1.82,2.08-1.41Z"/>
    <path class="cls-2" d="M332.99,110l2.01,10h-6c-.63-.62,1.32-7.33,1.91-8.59.53-1.14-.49-1.82,2.08-1.41Z"/>
    <path class="cls-2" d="M278.74,108.25c5.85,4.99-7.82,13.41-7.83,3.25,0-5.38,4.81-5.83,7.83-3.25Z"/>
  </g>
</svg>